<?xml version="1.0" encoding="utf-8"?>
<!-- Generator: Adobe Illustrator 26.3.1, SVG Export Plug-In . SVG Version: 6.00 Build 0)  -->
<svg version="1.1" id="Layer_1" xmlns="http://www.w3.org/2000/svg" xmlns:xlink="http://www.w3.org/1999/xlink" x="0px" y="0px"
	 viewBox="0 0 167.68 126.01" style="enable-background:new 0 0 167.68 126.01;" xml:space="preserve">
<style type="text/css">
	.st0{fill:#FFFFFF;}
</style>
<g>
	<g>
		<path class="st0" d="M162.62,9.99c-0.89,0-1.62,0.73-1.62,1.62c0,0.19,0.04,0.37,0.1,0.54l-5.57,5.57
			c-0.07,0.07-0.11,0.17-0.11,0.26v5.9c-1.85,0.07-3.31,1.57-3.31,3.42c0,0.69,0.2,1.33,0.56,1.87l-3.38,3.38h-4.21l3.86-3.85
			c0.11-0.11,0.13-0.28,0.08-0.42v-3.7l1.66-1.66c0.21,0.1,0.44,0.16,0.69,0.16c0.89,0,1.62-0.73,1.62-1.63
			c0-0.89-0.73-1.62-1.62-1.62c-0.89,0-1.62,0.73-1.62,1.62c0,0.38,0.13,0.72,0.35,1l-1.72,1.71c-0.06,0.07-0.11,0.17-0.11,0.26
			v3.85l-4.29,4.29h-8.83c-0.19,0-0.37,0.08-0.5,0.21l-7.04,7.04c-0.13,0.13-0.2,0.31-0.2,0.5v5.79c0,0.15,0.05,0.3,0.13,0.41
			L126.03,48c-0.2-0.08-0.44-0.14-0.69-0.14c-0.01,0-0.04,0.01-0.06,0.01v-6.93l9.53-9.52h7.87c0.08,0,0.17-0.04,0.23-0.1l2.49-2.5
			c0.07-0.06,0.1-0.14,0.1-0.23v-5.08l4.63-4.63h3.17c0.08,0,0.17-0.04,0.23-0.1l5.28-5.27c0.05-0.05,0.08-0.13,0.08-0.2
			c0.7-0.11,1.25-0.72,1.25-1.45c0-0.81-0.67-1.47-1.48-1.47c-0.81,0-1.46,0.66-1.46,1.47c0,0.64,0.39,1.17,0.96,1.38l-4.99,4.99
			h-3.18c-0.08,0-0.17,0.04-0.23,0.1l-4.81,4.81c-0.06,0.06-0.1,0.14-0.1,0.23v5.08l-2.3,2.31h-2.57l2.46-2.46
			c0.07-0.07,0.11-0.17,0.11-0.27l0.01-3.1c0-0.11-0.04-0.2-0.12-0.27l-2.75-2.76c-0.07-0.07-0.18-0.11-0.27-0.11h-3.3
			c-0.11,0-0.2,0.04-0.27,0.11l-3.19,3.2c-0.01,0.01-0.01,0.01-0.01,0.02c-0.2-0.09-0.4-0.14-0.63-0.14c-0.81,0-1.48,0.66-1.48,1.47
			s0.67,1.47,1.48,1.47c0.81,0,1.47-0.66,1.47-1.47c0-0.3-0.1-0.59-0.25-0.83l3.05-3.06h2.98l2.54,2.53v2.79l-2.81,2.81
			c-0.02,0.03-0.05,0.06-0.06,0.09h-4.24c-0.1,0-0.17,0.03-0.24,0.1l-9.71,9.71c-0.06,0.06-0.1,0.14-0.1,0.23v7.17
			c0,0,0,0.02,0,0.03c-0.52,0.23-0.93,0.7-1.05,1.29h-3.93c-0.17,0-0.33,0.06-0.45,0.18l-6.36,6.37c-0.13,0.12-0.19,0.28-0.19,0.45
			v3.67c0,0.07,0.01,0.12,0.02,0.18h-2.54c-0.18,0-0.36,0.07-0.5,0.21l-4.88,4.89c-0.14,0.13-0.21,0.31-0.21,0.5v6.32
			c0,0.1,0.02,0.2,0.06,0.29c0.01,0.04,0.04,0.07,0.06,0.1c0,0,0,0.01,0,0.01c0.01,0.01,0.02,0.03,0.03,0.04l0.04,0.04
			c0.01,0.01,0.02,0.02,0.03,0.03l0.81,0.8v0.89c0,0.12,0.05,0.23,0.13,0.32l2.54,2.54c0.08,0.09,0.2,0.14,0.32,0.14h2.45v3.03
			c0,0.12,0.05,0.23,0.14,0.32l2.38,2.39c0.08,0.09,0.2,0.13,0.32,0.13h4.72l1.57,1.58c0.14,0.15,0.35,0.23,0.55,0.23h3.28
			c0.2,0,0.4-0.08,0.55-0.23l0.02-0.03h1.88c0.13,0,0.26-0.05,0.37-0.15l2.63-2.64c0.01-0.02,0.04-0.04,0.05-0.06h2.22
			c0.1,0,0.19-0.04,0.27-0.11l1.32-1.33c0.02-0.03,0.05-0.06,0.07-0.1l5.67-5.67c0.07-0.07,0.11-0.17,0.11-0.26v-6.32
			c0.31,0.19,0.67,0.3,1.05,0.3c1.1,0,1.99-0.89,1.99-1.98c0-1.1-0.89-1.98-1.99-1.98c-1.08,0-1.98,0.89-1.98,1.98
			c0,0.37,0.11,0.71,0.29,1.01c-0.06,0.07-0.1,0.15-0.1,0.24v6.58l-5.59,5.59c-0.02,0.01-0.05,0.03-0.07,0.05l-1.21,1.21h-1.5
			l7.53-7.52c0.07-0.07,0.11-0.17,0.11-0.26v-9.46c0.92-0.17,1.62-0.98,1.62-1.95c0-0.46-0.17-0.88-0.43-1.22l-0.56-0.48
			c-0.3-0.17-0.63-0.28-1-0.28c-1.08,0-1.98,0.89-1.98,1.98c0,0.96,0.69,1.77,1.61,1.95v9.31l-7.63,7.62v-1.3l6.71-6.7
			c0.07-0.07,0.11-0.16,0.11-0.26v-4.49c0-0.1-0.04-0.2-0.11-0.26l-2.11-2.11c-0.01-0.01-0.02-0.02-0.04-0.02
			c0.15-0.28,0.24-0.6,0.24-0.93c0-1.1-0.88-1.98-1.98-1.98c-1.1,0-1.98,0.89-1.98,1.98c0,1.09,0.88,1.98,1.98,1.98
			c0.49,0,0.93-0.19,1.27-0.48l1.98,1.97v4.19l-6.07,6.07v-2.5c0.94-0.15,1.66-0.97,1.66-1.95c0-1.1-0.89-1.98-1.98-1.98
			c-1.1,0-1.99,0.89-1.99,1.98c0,0.95,0.68,1.75,1.57,1.94v5.41l-2.33,2.34h-0.63l0.29-0.28c0.05-0.07,0.1-0.14,0.11-0.17
			c0.01-0.04,0.04-0.14,0.04-0.2v-3.94c0-0.1-0.05-0.19-0.11-0.26L125,77.92c0.01-0.04,0.01-0.08,0.01-0.12v-3.3l3.89-3.88
			c0.11-0.11,0.17-0.26,0.17-0.41v-7.29l4.29-4.29h5.3l3.37,3.37c0.11,0.11,0.26,0.17,0.4,0.17h6.59l1.05,1.05v1.35l-2.76,2.76
			h-2.26c-0.15,0-0.3,0.06-0.4,0.17l-3.16,3.15c-0.11,0.11-0.17,0.26-0.17,0.41v2.19c0,0.05,0.01,0.09,0.01,0.13
			c-0.71,0.1-1.27,0.71-1.27,1.46c0,0.81,0.65,1.47,1.48,1.47c0.81,0,1.46-0.66,1.46-1.47c0-0.51-0.26-0.96-0.65-1.22
			c0.08-0.1,0.13-0.23,0.13-0.37v-1.95l2.81-2.81h2.26c0.15,0,0.3-0.06,0.4-0.17l3.11-3.1c0.11-0.11,0.17-0.26,0.17-0.41v-1.82
			c0-0.15-0.06-0.3-0.17-0.41l-1.39-1.39c-0.11-0.11-0.25-0.17-0.4-0.17h-6.57l-3.37-3.38c-0.12-0.11-0.26-0.17-0.42-0.17h-5.78
			c-0.15,0-0.31,0.06-0.42,0.17l-4.62,4.63c-0.11,0.11-0.17,0.26-0.17,0.4v7.3l-3.9,3.88c-0.11,0.11-0.17,0.26-0.17,0.41v2.51
			l-0.69-0.7v-7.72l0.77-0.78c0.25,0.17,0.56,0.27,0.89,0.27c0.89,0,1.62-0.73,1.62-1.62c0-0.89-0.73-1.62-1.62-1.62
			c-0.89,0-1.62,0.73-1.62,1.62c0,0.29,0.08,0.56,0.23,0.8l-0.9,0.9c-0.07,0.07-0.12,0.16-0.12,0.26v8.03c0,0.1,0.05,0.19,0.12,0.26
			l2.71,2.73v2.57l-1.61,1.61h-2.63l-1.31-1.31v-3.32c0-0.2-0.08-0.4-0.23-0.55l-3.53-3.52v-3.2c0-0.2-0.08-0.4-0.23-0.54
			l-1.69-1.69c-0.14-0.14-0.33-0.23-0.54-0.23h-6.14v-1.13l0.37-0.37h7.21l4.09,4.08v1.1c-0.06-0.01-0.12-0.02-0.18-0.02
			c-0.89,0-1.63,0.73-1.63,1.62c0,0.89,0.74,1.62,1.63,1.62c0.89,0,1.62-0.73,1.62-1.62c0-0.55-0.29-1.04-0.7-1.33v-1.53
			c0-0.1-0.04-0.19-0.11-0.26l-4.3-4.29c-0.06-0.07-0.15-0.11-0.26-0.11h-6.63l0.77-0.76h2.38h8.31c0.1,0,0.19-0.04,0.26-0.11
			l6.16-6.21c0.32,0.23,0.71,0.36,1.13,0.36c1.1,0,1.99-0.89,1.99-1.98c0-0.6-0.27-1.13-0.69-1.49l1.55-1.56h19.83
			c0.1,0,0.19-0.04,0.26-0.11l1.35-1.35c0-0.02,0-0.03-0.01-0.05c0.24,0.14,0.5,0.23,0.8,0.23c0.81,0,1.46-0.66,1.46-1.47
			c0-0.81-0.65-1.47-1.46-1.47c-0.82,0-1.48,0.66-1.48,1.47c0,0.27,0.07,0.52,0.2,0.73L150,54.31h-10.34l1.82-1.82h2.99
			c0.1,0,0.19-0.04,0.26-0.11l1.11-1.11c0.26,0.53,0.81,0.9,1.44,0.9c0.89,0,1.63-0.73,1.63-1.62c0-0.12-0.02-0.25-0.05-0.37
			c0,0,0-0.01,0.01-0.01l1.27-1.28h3.41l1.25,1.25c0.04,0.04,0.1,0.1,0.14,0.17v3.51l-1.06,1.07h-1.38c-0.08,0-0.17,0.04-0.23,0.1
			l-2.19,2.19h-4.82c-0.31-0.55-0.89-0.92-1.57-0.92c-0.99,0-1.8,0.81-1.8,1.8c0,0.99,0.81,1.8,1.8,1.8c0.99,0,1.8-0.8,1.8-1.8
			c0-0.08-0.01-0.15-0.01-0.23h4.74c0.08,0,0.17-0.04,0.23-0.1l2.19-2.19h1.38c0.08,0,0.17-0.03,0.23-0.09l1.25-1.26
			c0.07-0.06,0.1-0.14,0.1-0.23V50.2c0-0.15-0.05-0.2-0.13-0.33c-0.11-0.1-0.14-0.13-0.2-0.19l-1.35-1.34
			c-0.06-0.06-0.14-0.1-0.23-0.1h-3.67c-0.08,0-0.17,0.04-0.23,0.1l-1.23,1.22c-0.3-0.38-0.76-0.63-1.29-0.63
			c-0.83,0-1.51,0.64-1.6,1.45l-1.37,1.37h-2.99c-0.1,0-0.19,0.04-0.26,0.11l-2.45,2.45h-4.68l6.61-6.61h8.3
			c0.11,0,0.19-0.04,0.26-0.11l3.79-3.78h1.7c0.18,0.9,0.98,1.58,1.94,1.58c1.1,0,1.98-0.89,1.98-1.98c0-1.1-0.88-1.98-1.98-1.98
			c-0.98,0-1.79,0.71-1.95,1.64h-1.85c-0.1,0-0.19,0.04-0.26,0.11l-3.79,3.79h-7.41l1.1-1.1l5.91-0.01c0.11,0,0.2-0.04,0.26-0.11
			l4.24-4.23c0.01-0.02,0.02-0.05,0.04-0.07c0.29,0.15,0.6,0.24,0.93,0.24c1.1,0,1.99-0.89,1.99-1.98c0-0.02,0-0.04,0-0.05
			c0.02-0.02,0.04-0.04,0.06-0.05l1.42-1.41c0.08-0.08,0.13-0.2,0.13-0.32v-1.61c0-0.12-0.05-0.23-0.13-0.32l-1.66-1.64
			c-0.08-0.08-0.2-0.13-0.32-0.13h-2.93c-0.12,0-0.23,0.05-0.31,0.13l-1.48,1.47h-13.14c-0.13,0-0.25,0.06-0.33,0.15
			c-0.27-0.3-0.67-0.5-1.11-0.5c-0.81,0-1.46,0.66-1.46,1.47s0.65,1.47,1.46,1.47c0.82,0,1.48-0.66,1.48-1.47
			c0-0.08-0.01-0.15-0.02-0.23h13.32c0.12,0,0.23-0.05,0.31-0.13l1.48-1.47h2.56l1.38,1.38v1.23l-1,1
			c-0.35-0.57-0.96-0.95-1.69-0.95c-1.08,0-1.98,0.89-1.98,1.98c0,0.49,0.19,0.94,0.48,1.28l-4.11,4.11h-5.01l2.31-2.3
			c0.33,0.28,0.77,0.46,1.25,0.46c1.08,0,1.98-0.89,1.98-1.98c0-1.1-0.89-1.98-1.98-1.98c-1.1,0-1.99,0.89-1.99,1.98
			c0,0.35,0.11,0.67,0.26,0.95l-12.03,12.03c-0.01,0.01-0.01,0.03-0.02,0.05h-2.74c-0.1,0-0.19,0.04-0.26,0.11l-1.8,1.8
			c-0.2-0.06-0.4-0.11-0.63-0.11c-1.08,0-1.98,0.89-1.98,1.98c0,0.4,0.12,0.77,0.33,1.09l-6.06,6.1h-8.16h-1.64l0.49-0.49
			c0,0,0.04-0.04,0.08-0.04h2.86h5.84c0.1,0,0.19-0.04,0.26-0.11l3.46-3.47c0.07-0.07,0.11-0.17,0.11-0.26v-2.18
			c0-0.08-0.02-0.15-0.07-0.21c0.33-0.36,0.54-0.83,0.54-1.35c0-1.1-0.88-1.98-1.98-1.98c-1.1,0-1.99,0.89-1.99,1.98
			c0,1.1,0.89,1.98,1.99,1.98c0.27,0,0.54-0.06,0.77-0.16v1.77l-3.25,3.26c0,0-0.04,0.01-0.04,0.01h-8.74c-0.1,0-0.2,0.04-0.27,0.11
			l-3.34,3.33c-0.07,0.07-0.11,0.17-0.11,0.27v1.1c-0.01,0.01-0.03,0.01-0.04,0.02l-0.58,0.59v-3.41l4.47-4.47h5.39
			c0.19,0,0.37-0.08,0.5-0.21l2.1-2.09c0.13-0.14,0.2-0.32,0.2-0.51v-2.36l2.79-2.79h6.46c0.19,0,0.37-0.08,0.5-0.21l1.48-1.48
			c0.26,0.41,0.71,0.68,1.24,0.68c0.81,0,1.48-0.66,1.48-1.47s-0.67-1.47-1.48-1.47c-0.49,0-0.93,0.24-1.19,0.62
			c-0.21-0.03-0.44,0.03-0.61,0.2l-1.71,1.71h-6.44c-0.19,0-0.37,0.08-0.5,0.21l-3.2,3.2c-0.13,0.13-0.21,0.31-0.21,0.5v2.36
			l-1.68,1.68h-1.62c0.02-0.06,0.04-0.11,0.04-0.18v-3.41l5.99-5.99h3.87c0.31,0.52,0.89,0.88,1.54,0.88c0.37,0,0.7-0.11,0.98-0.29
			h0.26c0.11,0,0.2-0.04,0.26-0.11l3.32-3.32h3.06c0.29,0.75,1.01,1.27,1.85,1.27c1.1,0,1.99-0.89,1.99-1.98
			c0-1.1-0.89-1.98-1.99-1.98c-1.07,0-1.95,0.87-1.98,1.95h-3.08c-0.1,0-0.19,0.04-0.26,0.11l-2.61,2.61c0-0.02,0-0.04,0-0.06
			c0-0.32-0.08-0.63-0.24-0.89l3.1-3.09c0.05-0.05,0.1-0.11,0.12-0.18h1.61c0.1,0,0.19-0.04,0.26-0.11l2.3-2.3h1.19
			c0.15,0.95,0.96,1.68,1.95,1.68c1.1,0,1.99-0.89,1.99-1.98c0-1.1-0.89-1.98-1.99-1.98c-0.94,0-1.73,0.66-1.93,1.55h-1.37
			c-0.1,0-0.19,0.04-0.26,0.11l-2.3,2.3h-1.73c-0.21-0.11-0.49-0.08-0.67,0.11l-0.35,0.35v-1.42h2.52c0.1,0,0.19-0.04,0.26-0.11
			l3.36-3.36h4.28c0.36,0.48,0.93,0.8,1.57,0.8c1.1,0,1.99-0.89,1.99-1.98c0-1.09-0.89-1.98-1.99-1.98c-1.08,0-1.98,0.89-1.98,1.98
			c0,0.15,0.02,0.3,0.06,0.45h-4.09c-0.1,0-0.19,0.04-0.26,0.11l-3.36,3.36h-2.37v-2.47l6.62-6.62h14.13c0.19,0,0.37-0.07,0.5-0.21
			l0.39-0.4h6.47c0.1,0,0.2-0.04,0.27-0.11l1.91-1.91c0.02-0.02,0.05-0.05,0.06-0.08l1.07-1.07c0.07-0.07,0.11-0.17,0.11-0.26v-5.1
			c0-0.1-0.04-0.19-0.11-0.26l-2.43-2.43v-0.95l1.07-1.07c0.32,0.25,0.73,0.4,1.17,0.4c1.1,0,1.99-0.89,1.99-1.98
			c0-1.09-0.89-1.98-1.99-1.98c-1.08,0-1.98,0.89-1.98,1.98c0,0.38,0.12,0.74,0.3,1.04l-1.19,1.2c-0.07,0.07-0.11,0.16-0.11,0.26
			v1.26c0,0.1,0.04,0.19,0.11,0.26l2.43,2.43v4.79l-0.95,0.96c-0.04,0.01-0.07,0.04-0.1,0.06l-1.8,1.8h-5.53l2.42-2.42
			c0.49,0.32,1.07,0.52,1.69,0.55l1.49-0.26c1.24-0.51,2.11-1.74,2.11-3.16c0-1.68-1.2-3.07-2.8-3.37v-5.79l5.35-5.35
			c0.3,0.28,0.69,0.45,1.12,0.45c0.89,0,1.62-0.73,1.62-1.63C164.23,10.71,163.51,9.99,162.62,9.99z M151.36,20.56
			c0.49,0,0.88,0.39,0.88,0.88c0,0.49-0.39,0.88-0.88,0.88c-0.49,0-0.88-0.39-0.88-0.88C150.48,20.95,150.87,20.56,151.36,20.56z
			 M157.83,11.88c0-0.45,0.37-0.83,0.82-0.83c0.45,0,0.83,0.38,0.83,0.83c0,0.46-0.38,0.83-0.83,0.83
			C158.2,12.71,157.83,12.34,157.83,11.88z M132.01,27.27c-0.46,0-0.83-0.38-0.83-0.83c0-0.46,0.37-0.83,0.83-0.83
			c0.45,0,0.82,0.37,0.82,0.83C132.83,26.9,132.46,27.27,132.01,27.27z M140.18,65.14c0.69,0,1.25,0.56,1.25,1.24
			c0,0.68-0.56,1.24-1.25,1.24c-0.68,0-1.24-0.56-1.24-1.24C138.94,65.7,139.5,65.14,140.18,65.14z M136.04,61.89
			c0-0.69,0.56-1.24,1.24-1.24c0.69,0,1.25,0.55,1.25,1.24c0,0.68-0.56,1.24-1.25,1.24C136.6,63.13,136.04,62.57,136.04,61.89z
			 M132.1,65.93c-0.68,0-1.24-0.55-1.24-1.24c0-0.69,0.56-1.25,1.24-1.25c0.68,0,1.24,0.56,1.24,1.25
			C133.34,65.37,132.78,65.93,132.1,65.93z M127.71,73.97c0-0.68,0.56-1.24,1.25-1.24c0.68,0,1.24,0.56,1.24,1.24
			c0,0.69-0.56,1.24-1.24,1.24C128.27,75.21,127.71,74.66,127.71,73.97z M142.36,74.83c0,0.45-0.37,0.83-0.82,0.83
			c-0.46,0-0.83-0.38-0.83-0.83c0-0.46,0.37-0.83,0.83-0.83C141.99,74,142.36,74.37,142.36,74.83z M124.84,65.35
			c0.49,0,0.88,0.39,0.88,0.88c0,0.49-0.39,0.88-0.88,0.88c-0.49,0-0.88-0.39-0.88-0.88C123.95,65.74,124.35,65.35,124.84,65.35z
			 M119.71,74.32c0,0.49-0.39,0.88-0.87,0.88c-0.49,0-0.88-0.39-0.88-0.88c0-0.48,0.39-0.88,0.88-0.88
			C119.32,73.44,119.71,73.84,119.71,74.32z M152.55,51.48c0.45,0,0.82,0.37,0.82,0.83c0,0.45-0.37,0.83-0.82,0.83
			c-0.46,0-0.83-0.37-0.83-0.83C151.72,51.85,152.09,51.48,152.55,51.48z M143.7,58.94c-0.5,0-0.89-0.4-0.89-0.9
			c0-0.5,0.39-0.9,0.89-0.9s0.89,0.4,0.89,0.9C144.6,58.53,144.2,58.94,143.7,58.94z M147.29,49.66c0.49,0,0.88,0.4,0.88,0.88
			c0,0.49-0.39,0.88-0.88,0.88c-0.48,0-0.88-0.39-0.88-0.88C146.41,50.06,146.81,49.66,147.29,49.66z M156.54,42.17
			c0.68,0,1.24,0.55,1.24,1.24c0,0.69-0.56,1.24-1.24,1.24c-0.69,0-1.24-0.55-1.24-1.24C155.3,42.73,155.85,42.17,156.54,42.17z
			 M135.95,37.72c-0.45,0-0.82-0.37-0.82-0.83c0-0.46,0.37-0.83,0.82-0.83c0.46,0,0.83,0.37,0.83,0.83
			C136.78,37.36,136.41,37.72,135.95,37.72z M153.75,38.46c0.69,0,1.25,0.56,1.25,1.24c0,0.69-0.56,1.24-1.25,1.24
			c-0.68,0-1.24-0.55-1.24-1.24C152.52,39.02,153.08,38.46,153.75,38.46z M146.69,40.04c0.68,0,1.24,0.56,1.24,1.24
			c0,0.69-0.56,1.24-1.24,1.24c-0.69,0-1.25-0.55-1.25-1.24C145.44,40.6,146,40.04,146.69,40.04z M127.48,56.85
			c0.69,0,1.25,0.56,1.25,1.24c0,0.69-0.56,1.24-1.25,1.24c-0.68,0-1.24-0.55-1.24-1.24C126.24,57.41,126.8,56.85,127.48,56.85z
			 M121.56,58.41c-0.69,0-1.24-0.56-1.24-1.24c0-0.69,0.55-1.24,1.24-1.24c0.68,0,1.24,0.55,1.24,1.24
			C122.8,57.85,122.24,58.41,121.56,58.41z M116.33,77.27l1.82,1.82v3.15h-4.11l-2.13-2.13v-2.84H116.33z M113.18,70.59l1.23,1.23
			v3.2c0,0.2,0.08,0.4,0.23,0.54l0.81,0.8h-6.69l-2.27-2.27v-3.5c0-0.01,0-0.01,0-0.01L113.18,70.59z M130.4,50.68
			c0.15-0.21,0.4-0.35,0.68-0.35c0.45,0,0.83,0.37,0.83,0.83c0,0.46-0.38,0.83-0.83,0.83c-0.35,0-0.64-0.21-0.76-0.52
			C130.51,51.24,130.53,50.93,130.4,50.68z M125.34,50.56c-0.39,0-0.73-0.26-0.85-0.62l0,0c0-0.08-0.01-0.15-0.05-0.23
			c0-0.02,0-0.04,0-0.05c0-0.5,0.4-0.89,0.89-0.89c0.5,0,0.9,0.4,0.9,0.89C126.24,50.15,125.84,50.56,125.34,50.56z M135.07,45.79
			c0.69,0,1.25,0.56,1.25,1.24c0,0.69-0.56,1.24-1.25,1.24c-0.68,0-1.24-0.55-1.24-1.24C133.83,46.35,134.39,45.79,135.07,45.79z
			 M137.43,41.54c0.69,0,1.24,0.55,1.24,1.24c0,0.68-0.55,1.24-1.24,1.24c-0.68,0-1.24-0.55-1.24-1.24
			C136.19,42.1,136.75,41.54,137.43,41.54z M140.82,37.9c0.69,0,1.25,0.55,1.25,1.24c0,0.68-0.56,1.24-1.25,1.24
			c-0.68,0-1.24-0.56-1.24-1.24C139.58,38.45,140.14,37.9,140.82,37.9z M160.05,17.29c0.69,0,1.25,0.55,1.25,1.24
			c0,0.69-0.56,1.25-1.25,1.25c-0.68,0-1.24-0.56-1.24-1.25C158.82,17.84,159.38,17.29,160.05,17.29z M157.47,27.3
			c0,1.07-0.88,1.94-1.95,1.94s-1.94-0.87-1.94-1.94c0-1.07,0.87-1.95,1.94-1.95S157.47,26.23,157.47,27.3z M162.62,12.49
			c-0.49,0-0.88-0.39-0.88-0.88c0-0.48,0.39-0.87,0.88-0.87c0.49,0,0.88,0.39,0.88,0.87C163.5,12.09,163.1,12.49,162.62,12.49z"/>
		<path class="st0" d="M115.43,81.52c0.9,0,1.64-0.74,1.64-1.65c0-0.9-0.74-1.64-1.64-1.64c-0.92,0-1.66,0.74-1.66,1.64
			C113.77,80.78,114.51,81.52,115.43,81.52z M115.43,79.13c0.4,0,0.74,0.34,0.74,0.74c0,0.41-0.33,0.74-0.74,0.74
			c-0.42,0-0.75-0.33-0.75-0.74C114.68,79.46,115.01,79.13,115.43,79.13z"/>
		<path class="st0" d="M145.88,66.11c0.82,0,1.48-0.66,1.48-1.47c0-0.82-0.65-1.47-1.48-1.47c-0.81,0-1.46,0.65-1.46,1.47
			C144.42,65.45,145.07,66.11,145.88,66.11z M145.88,63.81c0.46,0,0.83,0.37,0.83,0.83c0,0.45-0.37,0.83-0.83,0.83
			c-0.45,0-0.82-0.37-0.82-0.83C145.06,64.18,145.43,63.81,145.88,63.81z"/>
		<path class="st0" d="M152.21,57.95c-0.82,0-1.48,0.66-1.48,1.47c0,0.81,0.65,1.47,1.48,1.47c0.81,0,1.46-0.66,1.46-1.47
			C153.67,58.61,153.02,57.95,152.21,57.95z M152.21,60.25c-0.46,0-0.83-0.37-0.83-0.83c0-0.46,0.37-0.83,0.83-0.83
			c0.45,0,0.82,0.37,0.82,0.83C153.03,59.88,152.66,60.25,152.21,60.25z"/>
		<path class="st0" d="M103.43,44.07v-2.12l2.67-2.67h0.98c-0.01,0.08-0.01,0.15-0.01,0.22c0,0.68,0.34,1.28,0.85,1.64l-1.64,1.64
			c-0.08,0.08-0.13,0.2-0.13,0.32v0.61c-0.64,0.39-1.07,1.09-1.07,1.89c0,1.21,0.98,2.2,2.2,2.2c1.08,0,1.98-0.79,2.17-1.82
			c0.03-0.02,0.06-0.04,0.08-0.07l5.06-5.06c0.1-0.08,0.14-0.2,0.14-0.32v-3.97c0.67-0.37,1.12-1.1,1.12-1.92
			c0-1.21-0.99-2.2-2.19-2.2c-1.21,0-2.2,0.99-2.2,2.2c0,1.21,0.99,2.2,2.2,2.2c0.05,0,0.11,0,0.17-0.01v3.51l-4.48,4.48
			c-0.31-0.84-1.11-1.43-2.06-1.43c-0.08,0-0.15,0-0.22,0.01v-0.13l1.7-1.7c0.03-0.03,0.05-0.06,0.07-0.1
			c0.08,0.01,0.17,0.02,0.26,0.02c1.11,0,2.01-0.9,2.01-2.01c0-0.95-0.67-1.75-1.57-1.95v-3.11l5.57-5.56h2.08
			c0.1,1.02,0.95,1.83,2,1.83c1.11,0,2.01-0.9,2.01-2.01c0-1.11-0.9-2.01-2.01-2.01c-0.85,0-1.57,0.54-1.87,1.28h-2.41
			c-0.12,0-0.23,0.05-0.32,0.14l-5.82,5.82c-0.08,0.08-0.13,0.2-0.13,0.32v3.3c-0.51,0.12-0.95,0.43-1.23,0.85
			c-0.04-0.01-0.08-0.02-0.13-0.02h-1.36c-0.12,0-0.23,0.05-0.32,0.13l-2.93,2.94c-0.09,0.08-0.13,0.2-0.13,0.32v2.31
			c-0.63,0.2-1.1,0.78-1.1,1.48c0,0.85,0.69,1.54,1.54,1.54c0.04,0,0.06-0.01,0.1-0.01v7.21l-2.4,2.4v-2.71
			c1.02-0.1,1.82-0.95,1.82-2c0-1.11-0.9-2.01-2.01-2.01s-2.01,0.9-2.01,2.01c0,0.86,0.54,1.59,1.3,1.88v3.93
			c0,0.18,0.11,0.35,0.27,0.42c0.06,0.02,0.12,0.04,0.17,0.04c0.12,0,0.23-0.05,0.32-0.14l3.3-3.3c0.09-0.08,0.13-0.2,0.13-0.32
			v-7.45c0-0.09-0.02-0.17-0.07-0.24c0.38-0.28,0.62-0.73,0.62-1.23C104.52,44.85,104.06,44.26,103.43,44.07z M113.65,35.69
			c-0.58,0-1.05-0.47-1.05-1.04c0-0.58,0.46-1.04,1.05-1.04c0.57,0,1.04,0.46,1.04,1.04C114.69,35.22,114.22,35.69,113.65,35.69z
			 M107.27,44.56c0.58,0,1.04,0.47,1.04,1.04c0,0.58-0.46,1.04-1.04,1.04c-0.57,0-1.04-0.46-1.04-1.04
			C106.23,45.03,106.7,44.56,107.27,44.56z M119.18,27.46c0.68,0,1.24,0.55,1.24,1.23c0,0.69-0.56,1.24-1.24,1.24
			c-0.68,0-1.24-0.55-1.24-1.24C117.94,28.01,118.5,27.46,119.18,27.46z M109.08,38.27c0.68,0,1.23,0.55,1.23,1.23
			c0,0.69-0.55,1.24-1.23,1.24c-0.69,0-1.24-0.55-1.24-1.24C107.84,38.82,108.39,38.27,109.08,38.27z M100.49,53.21
			c-0.68,0-1.23-0.55-1.23-1.24c0-0.68,0.55-1.23,1.23-1.23c0.68,0,1.24,0.55,1.24,1.23C101.72,52.66,101.16,53.21,100.49,53.21z
			 M102.98,46.44c-0.5,0-0.9-0.4-0.9-0.9c0-0.5,0.4-0.9,0.9-0.9c0.49,0,0.9,0.4,0.9,0.9C103.88,46.04,103.47,46.44,102.98,46.44z"/>
		<path class="st0" d="M120.14,33.29c-1.11,0-2.01,0.9-2.01,2.01c0,1.11,0.91,2.01,2.01,2.01s2.01-0.9,2.01-2.01
			c0-0.25-0.05-0.48-0.13-0.7c0.01-0.01,0.02-0.02,0.04-0.04l0.68-0.65h3.08c0.1,0,0.19-0.04,0.26-0.11l2.19-2.11
			c0.06,0.04,0.14,0.07,0.23,0.07h1.63c0.12,0,0.23-0.05,0.31-0.13l2-2h3.21c0.12,0,0.24-0.05,0.32-0.13l1.73-1.72
			c0-0.01,0-0.01,0-0.01c0.11,0.02,0.21,0.04,0.32,0.04c0.81,0,1.46-0.66,1.46-1.48c0-0.81-0.65-1.47-1.46-1.47
			c-0.81,0-1.48,0.66-1.48,1.47c0,0.37,0.14,0.71,0.36,0.96l-1.43,1.44h-3.22c-0.12,0-0.24,0.05-0.32,0.13l-2,2h-0.81l0.71-0.69
			c0.08-0.07,0.12-0.17,0.12-0.27v-4.19l8.98-9.11h11.58c0.1,0,0.19-0.04,0.26-0.11l2.16-2.15c0.43,0.46,1.05,0.76,1.73,0.76
			c1.31,0,2.38-1.07,2.38-2.38c0-1.32-1.07-2.38-2.38-2.38c-1.2,0-2.19,0.9-2.36,2.06h-9c-0.08,0-0.17,0.04-0.23,0.1l-3.33,3.34
			h-0.95c-0.11,0-0.2,0.04-0.27,0.11l-9.21,9.34c-0.07,0.07-0.12,0.17-0.12,0.27v4.18l-3.54,3.42h-2.12l2.5-2.42
			c0.12-0.11,0.18-0.26,0.18-0.42v-4.59l6.16-6.16c0.01-0.01,0.01-0.01,0.02-0.02c0.2,0.05,0.4,0.09,0.62,0.09
			c1.31,0,2.38-1.07,2.38-2.38c0-1.32-1.07-2.38-2.38-2.38c-1.31,0-2.38,1.07-2.38,2.38c0,0.67,0.27,1.27,0.73,1.7l-6.13,6.12
			c-0.11,0.11-0.17,0.26-0.17,0.41v4.58l-1.17,1.13v-6.65l2.58-2.58c0.07-0.07,0.11-0.17,0.11-0.27v-0.4
			c0.63-0.17,1.08-0.74,1.08-1.42c0-0.81-0.65-1.47-1.46-1.47s-1.48,0.66-1.48,1.47c0,0.68,0.46,1.25,1.1,1.42v0.24l-2.6,2.59
			c-0.07,0.07-0.11,0.17-0.11,0.27v7.55l-1.8,1.74C120.99,33.43,120.58,33.29,120.14,33.29z M138.03,25.49
			c0.45,0,0.82,0.37,0.82,0.82c0,0.46-0.37,0.83-0.82,0.83c-0.46,0-0.83-0.37-0.83-0.83C137.2,25.86,137.57,25.49,138.03,25.49z
			 M154.67,11.21c0.82,0,1.49,0.67,1.49,1.48c0,0.82-0.67,1.48-1.49,1.48c-0.81,0-1.48-0.66-1.48-1.48
			C153.19,11.88,153.86,11.21,154.67,11.21z M143.45,13.02h8.86c0.04,0.23,0.1,0.45,0.19,0.65l-2.14,2.14h-9.71L143.45,13.02z
			 M133.02,15.74c0.81,0,1.48,0.67,1.48,1.48c0,0.82-0.67,1.48-1.48,1.48c-0.82,0-1.48-0.66-1.48-1.48
			C131.54,16.41,132.2,15.74,133.02,15.74z M125.37,19.85c0-0.46,0.38-0.83,0.83-0.83c0.45,0,0.82,0.37,0.82,0.83
			c0,0.45-0.37,0.83-0.82,0.83C125.75,20.68,125.37,20.31,125.37,19.85z M120.14,36.53c-0.68,0-1.24-0.56-1.24-1.24
			c0-0.68,0.56-1.23,1.24-1.23c0.68,0,1.24,0.55,1.24,1.23C121.38,35.97,120.82,36.53,120.14,36.53z"/>
		<path class="st0" d="M141.69,19.85c0,0.81,0.67,1.47,1.48,1.47c0.81,0,1.46-0.66,1.46-1.47c0-0.81-0.65-1.47-1.46-1.47
			C142.36,18.38,141.69,19.04,141.69,19.85z M143.99,19.85c0,0.45-0.37,0.83-0.82,0.83c-0.46,0-0.83-0.38-0.83-0.83
			c0-0.46,0.37-0.83,0.83-0.83C143.62,19.03,143.99,19.4,143.99,19.85z"/>
		<path class="st0" d="M120.33,25.14c0.81,0,1.46-0.66,1.46-1.47s-0.65-1.47-1.46-1.47c-0.82,0-1.48,0.66-1.48,1.47
			S119.51,25.14,120.33,25.14z M120.33,22.84c0.45,0,0.82,0.38,0.82,0.83c0,0.46-0.37,0.83-0.82,0.83c-0.46,0-0.83-0.37-0.83-0.83
			C119.5,23.21,119.87,22.84,120.33,22.84z"/>
	</g>
	<g>
		<path class="st0" d="M69.96-0.29c0.15-0.23,0.3-0.46,0.42-0.7C70.23-0.75,70.08-0.52,69.96-0.29z"/>
		<path class="st0" d="M10.54,17.67c0-0.84-0.69-1.52-1.52-1.52c-0.84,0-1.52,0.68-1.52,1.52c0,0.84,0.68,1.52,1.52,1.52
			C9.85,19.2,10.54,18.51,10.54,17.67z M9.01,18.56c-0.48,0-0.88-0.39-0.88-0.88c0-0.48,0.39-0.88,0.88-0.88
			c0.49,0,0.88,0.4,0.88,0.88C9.9,18.16,9.5,18.56,9.01,18.56z"/>
		<path class="st0" d="M76.59,76.49v-1.07c0.42-0.27,0.7-0.75,0.7-1.28c0-0.84-0.68-1.52-1.52-1.52c-0.84,0-1.52,0.68-1.52,1.52
			c0,0.84,0.69,1.52,1.52,1.52c0.06,0,0.11-0.01,0.17-0.01v0.97c0,0.09,0.03,0.17,0.09,0.23l4.23,4.22v6.67
			c-0.77,0.72-1.26,1.2-1.57,1.52v-7.81c0-0.12-0.05-0.23-0.14-0.32l-4.87-4.87v-5.07c0.69-0.14,1.2-0.76,1.2-1.48
			c0-0.84-0.68-1.52-1.52-1.52c-0.84,0-1.52,0.68-1.52,1.52c0,0.73,0.51,1.34,1.2,1.48v4.43l-1.99-1.99v-6.58
			c0.68-0.15,1.2-0.76,1.2-1.49c0-0.84-0.68-1.52-1.52-1.52c-0.84,0-1.52,0.69-1.52,1.52c0,0.73,0.52,1.34,1.2,1.49V73l-2.27-2.27
			v-7.94c0.69-0.15,1.2-0.76,1.2-1.49c0-0.84-0.68-1.52-1.52-1.52c-0.84,0-1.52,0.68-1.52,1.52c0,0.73,0.52,1.34,1.2,1.49v7.3
			l-2.42-2.42V62.5c0-0.12-0.05-0.23-0.13-0.32l-1.79-1.78v-7.06c0-0.12-0.05-0.23-0.13-0.32L48.37,38.36
			c-0.08-0.08-0.2-0.13-0.32-0.13h-3.41l-2.02-2.03c0.34-0.28,0.55-0.7,0.55-1.18c0-0.84-0.68-1.52-1.52-1.52
			c-0.85,0-1.52,0.68-1.52,1.52c0,0.84,0.68,1.52,1.52,1.52c0.03,0,0.06-0.01,0.09-0.01c0.02,0.06,0.06,0.12,0.11,0.17l2.29,2.29
			c0.09,0.08,0.2,0.13,0.32,0.13h3.41l14.4,14.4v5.97l-7.53-7.52v-0.08c0.68-0.15,1.19-0.76,1.19-1.48c0-0.85-0.69-1.52-1.52-1.52
			c-0.84,0-1.52,0.68-1.52,1.52c0,0.64,0.4,1.19,0.96,1.41c0,0.01,0,0.02,0,0.04v0.3c0,0.12,0.05,0.23,0.13,0.32l10.21,10.21v5.17
			c0,0.12,0.05,0.23,0.13,0.31l13.48,13.48v10.5l-4.64,4.65h-4.57l-2.19-2.2c0.16-0.24,0.26-0.54,0.26-0.86
			c0-0.83-0.69-1.52-1.52-1.52c-0.84,0-1.52,0.68-1.52,1.52c0,0.85,0.68,1.53,1.52,1.53c0.29,0,0.56-0.08,0.79-0.23l2.31,2.3
			c0.06,0.06,0.14,0.1,0.23,0.1h4.06l-1.32,1.31h-4.6l-1.32-1.32c-0.14-0.14-0.33-0.21-0.52-0.21h-1.34l-8.19-8.2v-7.67
			c0-0.1-0.04-0.2-0.11-0.26l-2.33-2.33c0.22-0.28,0.36-0.63,0.36-1.01c0-0.89-0.73-1.62-1.62-1.62c-0.9,0-1.63,0.73-1.63,1.62
			c0,0.89,0.73,1.62,1.63,1.62c0.24,0,0.46-0.05,0.67-0.15l2.29,2.29v3.85l-3.53-3.54c-0.07-0.07-0.17-0.11-0.27-0.11H50.5
			c-0.01-0.07-0.04-0.12-0.09-0.17l-2.38-2.39v-1.53c0-0.09-0.04-0.17-0.1-0.23l-1.84-1.83c-0.06-0.06-0.14-0.1-0.23-0.1h-1.94
			c-0.25-0.51-0.77-0.85-1.36-0.85c-0.84,0-1.52,0.68-1.52,1.52c0,0.84,0.69,1.52,1.52,1.52c0.84,0,1.52-0.69,1.52-1.52
			c0-0.01,0-0.02,0-0.02l1.65-0.01l1.65,1.65v1.54c0,0.08,0.04,0.17,0.1,0.23l2.2,2.2h-2.02l-2.55-2.56
			c-0.07-0.07-0.17-0.11-0.27-0.11h-4.47l-1.7-1.69c0.16-0.24,0.25-0.53,0.25-0.84c0-0.84-0.68-1.52-1.52-1.52
			c-0.84,0-1.52,0.69-1.52,1.52c0,0.84,0.69,1.52,1.52,1.52c0.25,0,0.48-0.06,0.69-0.17l1.84,1.84c0.07,0.07,0.17,0.11,0.27,0.11
			h4.47l1.89,1.89h-9.25l-7.32-7.32c-0.07-0.07-0.17-0.11-0.27-0.11h-4.1l-2.14-2.14v-2.97c0-0.09-0.03-0.17-0.09-0.23l-0.6-0.6
			v-3.46l2.35-2.35h1.36c0.02,0,0.04-0.01,0.06-0.01c0.26,0.48,0.76,0.8,1.35,0.8c0.84,0,1.52-0.68,1.52-1.52
			c0-0.84-0.68-1.52-1.52-1.52c-0.84,0-1.52,0.68-1.52,1.52c0,0.02,0,0.05,0.01,0.08h-1.38c-0.09,0-0.17,0.03-0.23,0.1l-2.54,2.54
			c-0.06,0.06-0.1,0.14-0.1,0.23v2.95l-0.95-0.95v-5.27c0.68-0.15,1.2-0.76,1.2-1.49c0-0.84-0.69-1.52-1.52-1.52
			c-0.84,0-1.52,0.68-1.52,1.52c0,0.73,0.52,1.35,1.21,1.49v5.41c0,0.08,0.03,0.17,0.09,0.23l1.6,1.6h0l0.59,0.6v2.19l-5.12-5.13
			v-6.46c0-0.11-0.04-0.2-0.12-0.27l-0.57-0.58c0.33-0.28,0.54-0.7,0.54-1.15c0-0.84-0.69-1.52-1.52-1.52
			c-0.84,0-1.52,0.68-1.52,1.52c0,0.84,0.68,1.52,1.52,1.52c0.08,0,0.16-0.01,0.24-0.02l0.67,0.66v6.47c0,0.1,0.04,0.2,0.11,0.27
			l8.13,8.13c0.07,0.07,0.17,0.11,0.27,0.11h4.1l7.32,7.32c0.08,0.07,0.17,0.11,0.27,0.11h13.33l3.96,3.97v2.74
			c0,0.1,0.04,0.19,0.11,0.26l7.78,7.78h-2.76c-0.34-1.54-1.71-2.69-3.34-2.69c-0.64,0-1.23,0.18-1.74,0.49l-6.02-6.02
			c0.3-0.45,0.48-0.98,0.48-1.56c0-1.55-1.26-2.82-2.82-2.82c-1.55,0-2.81,1.26-2.81,2.82c0,1.55,1.26,2.81,2.81,2.81
			c0.43,0,0.85-0.11,1.21-0.28l2.58,2.59h-5.76L29.87,78.24c-0.08-0.08-0.2-0.13-0.32-0.13h-4.42c-0.2-0.62-0.77-1.07-1.46-1.07
			c-0.83,0-1.52,0.68-1.52,1.52c0,0.84,0.69,1.52,1.52,1.52c0.69,0,1.26-0.45,1.46-1.07h4.24l3.37,3.38H27.8
			c-0.15-0.69-0.76-1.2-1.49-1.2c-0.84,0-1.52,0.69-1.52,1.52c0,0.84,0.69,1.52,1.52,1.52c0.73,0,1.34-0.51,1.49-1.2h5.58l3.31,3.3
			h-5.71c-0.15-0.69-0.76-1.2-1.49-1.2c-0.84,0-1.52,0.68-1.52,1.52c0,0.84,0.68,1.52,1.52,1.52c0.73,0,1.34-0.51,1.49-1.2h6.32
			c0.01,0,0.02-0.01,0.04-0.01l2.88,2.88h-6.1c-0.14-0.69-0.76-1.2-1.48-1.2c-0.84,0-1.52,0.68-1.52,1.52
			c0,0.84,0.69,1.52,1.52,1.52c0.73,0,1.34-0.51,1.48-1.2h6.75l2.19,2.19h-5.59c-0.14-0.69-0.76-1.2-1.49-1.2
			c-0.83,0-1.52,0.68-1.52,1.52c0,0.84,0.69,1.52,1.52,1.52c0.73,0,1.35-0.51,1.49-1.2h6.24c0.08,0.08,0.2,0.13,0.31,0.13h6.85
			l2.57,2.58c-0.38,0.55-0.6,1.21-0.6,1.93c0,1.88,1.54,3.42,3.43,3.42c1.63,0,3-1.14,3.34-2.68h4.84l0.42,0.42
			c0,0.01-0.01,0.01-0.01,0.01l-3.31,3.31h-8.43l-4.98-4.99c-0.07-0.07-0.17-0.12-0.27-0.12h-4.29c0.01-0.06,0.01-0.13,0.01-0.2
			c0-0.85-0.69-1.52-1.52-1.52c-0.84,0-1.52,0.68-1.52,1.52c0,0.83,0.68,1.52,1.52,1.52c0.48,0,0.9-0.23,1.18-0.56
			c0.04,0.01,0.07,0.01,0.11,0.01h4.35l4.98,4.99c0.08,0.07,0.17,0.11,0.27,0.11h8.74c0.11,0,0.2-0.04,0.27-0.11l3.42-3.42
			c0-0.01,0-0.01,0-0.01l0.36,0.36c0.14,0.14,0.33,0.23,0.52,0.23h4.63l0.06-0.13c0.1,0,0.18-0.05,0.26-0.12l7.34-7.34
			c0.09-0.08,0.14-0.2,0.14-0.32v-2.1c0.01-0.02,0.02-0.04,0.04-0.06c0.15-0.21,1.16-1.19,2.08-2.05c0.07-0.06,0.1-0.14,0.1-0.24
			v-6.94c0-0.09-0.04-0.17-0.1-0.23L76.59,76.49z M75.77,75.02c-0.49,0-0.88-0.39-0.88-0.88c0-0.49,0.39-0.88,0.88-0.88
			c0.48,0,0.88,0.39,0.88,0.88C76.65,74.62,76.25,75.02,75.77,75.02z M41.65,35.9c-0.49,0-0.88-0.4-0.88-0.88
			c0-0.48,0.39-0.88,0.88-0.88c0.48,0,0.87,0.4,0.87,0.88C42.52,35.5,42.13,35.9,41.65,35.9z M53.52,50.41
			c0-0.49,0.39-0.88,0.88-0.88c0.49,0,0.88,0.39,0.88,0.88c0,0.48-0.39,0.88-0.88,0.88C53.91,51.29,53.52,50.89,53.52,50.41z
			 M66.94,61.3c0-0.48,0.4-0.88,0.88-0.88c0.49,0,0.88,0.39,0.88,0.88c0,0.49-0.39,0.88-0.88,0.88
			C67.34,62.18,66.94,61.78,66.94,61.3z M69.85,65.57c0-0.48,0.39-0.88,0.88-0.88c0.48,0,0.88,0.4,0.88,0.88
			c0,0.48-0.4,0.88-0.88,0.88C70.25,66.45,69.85,66.05,69.85,65.57z M72.49,69.72c0-0.49,0.39-0.88,0.87-0.88
			c0.49,0,0.88,0.39,0.88,0.88c0,0.48-0.39,0.88-0.88,0.88C72.88,70.6,72.49,70.2,72.49,69.72z M65.77,94.33
			c-0.03,0.01-0.05,0.03-0.08,0.05c-0.02,0.02-0.03,0.04-0.05,0.06c-0.15,0.11-0.33,0.19-0.54,0.19c-0.49,0-0.88-0.39-0.88-0.88
			c0-0.48,0.39-0.88,0.88-0.88c0.48,0,0.88,0.39,0.88,0.88C65.99,93.97,65.91,94.17,65.77,94.33z M51.5,78.62
			c-0.49,0-0.88-0.39-0.88-0.88c0-0.48,0.39-0.88,0.88-0.88c0.48,0,0.87,0.4,0.87,0.88C52.38,78.23,51.99,78.62,51.5,78.62z
			 M42.57,77c-0.48,0-0.88-0.4-0.88-0.88c0-0.48,0.4-0.88,0.88-0.88c0.48,0,0.88,0.4,0.88,0.88C43.45,76.6,43.05,77,42.57,77z
			 M37.4,77.37c-0.49,0-0.88-0.39-0.88-0.88c0-0.49,0.39-0.88,0.88-0.88c0.48,0,0.88,0.39,0.88,0.88
			C38.28,76.98,37.89,77.37,37.4,77.37z M27.91,60.9c0.48,0,0.88,0.39,0.88,0.88c0,0.48-0.39,0.88-0.88,0.88
			c-0.49,0-0.88-0.39-0.88-0.88C27.03,61.3,27.42,60.9,27.91,60.9z M19.98,59.97c0-0.48,0.4-0.88,0.88-0.88
			c0.48,0,0.88,0.4,0.88,0.88c0,0.49-0.4,0.88-0.88,0.88C20.38,60.85,19.98,60.46,19.98,59.97z M16.03,58.75
			c-0.49,0-0.88-0.39-0.88-0.88c0-0.49,0.39-0.88,0.88-0.88c0.48,0,0.88,0.39,0.88,0.88C16.91,58.36,16.51,58.75,16.03,58.75z
			 M46.14,89.13c-0.94,0-1.7-0.76-1.7-1.7c0-0.94,0.76-1.7,1.7-1.7c0.94,0,1.7,0.76,1.7,1.7C47.85,88.37,47.09,89.13,46.14,89.13z
			 M23.66,79.44c-0.48,0-0.87-0.39-0.87-0.88c0-0.49,0.39-0.88,0.87-0.88c0.49,0,0.88,0.39,0.88,0.88
			C24.55,79.04,24.15,79.44,23.66,79.44z M26.31,83.58c-0.49,0-0.88-0.39-0.88-0.88c0-0.49,0.39-0.88,0.88-0.88
			c0.48,0,0.88,0.39,0.88,0.88C27.18,83.19,26.79,83.58,26.31,83.58z M29.48,87.53c-0.49,0-0.88-0.39-0.88-0.87
			c0-0.49,0.39-0.88,0.88-0.88c0.48,0,0.88,0.39,0.88,0.88C30.36,87.13,29.96,87.53,29.48,87.53z M32.61,91.05
			c-0.49,0-0.88-0.39-0.88-0.88c0-0.48,0.39-0.87,0.88-0.87c0.48,0,0.88,0.39,0.88,0.87C33.49,90.65,33.1,91.05,32.61,91.05z
			 M35.96,93.88c-0.48,0-0.88-0.39-0.88-0.87c0-0.48,0.39-0.88,0.88-0.88c0.49,0,0.88,0.4,0.88,0.88
			C36.84,93.48,36.44,93.88,35.96,93.88z M56.24,99.9c-1.07,0-1.95-0.87-1.95-1.94S55.17,96,56.24,96c1.07,0,1.94,0.88,1.94,1.95
			S57.31,99.9,56.24,99.9z M42.05,98c-0.48,0-0.88-0.39-0.88-0.88c0-0.49,0.39-0.88,0.88-0.88c0.49,0,0.88,0.39,0.88,0.88
			C42.93,97.61,42.54,98,42.05,98z"/>
		<path class="st0" d="M60.19,53.02c0-0.84-0.68-1.52-1.52-1.52c-0.84,0-1.52,0.69-1.52,1.52c0,0.84,0.69,1.52,1.52,1.52
			C59.51,54.54,60.19,53.86,60.19,53.02z M57.79,53.02c0-0.48,0.39-0.88,0.88-0.88c0.48,0,0.88,0.4,0.88,0.88
			c0,0.48-0.39,0.88-0.88,0.88C58.19,53.9,57.79,53.5,57.79,53.02z"/>
		<path class="st0" d="M16.79,50.04l8.02,8.02c0.11,0.11,0.26,0.17,0.41,0.17h10.69c0.38,1.05,1.37,1.8,2.54,1.8
			c0.4,0,0.78-0.09,1.13-0.24l3.42,3.41v2.21h-1.82c0,0,0.01-0.01,0.01-0.02v-2.22c0-0.1-0.04-0.2-0.11-0.26l-1.67-1.67
			c-0.07-0.07-0.16-0.11-0.26-0.11h-2.1c-0.1-0.8-0.77-1.42-1.6-1.42c-0.89,0-1.62,0.73-1.62,1.62c0,0.89,0.73,1.62,1.62,1.62
			c0.7,0,1.3-0.45,1.52-1.08h2.02l1.45,1.45v2.07c0,0.01,0,0.02,0,0.02l-6.17,0.01c0-0.06,0.01-0.11,0.01-0.17
			c0-1.27-1.04-2.31-2.31-2.31c-1.27,0-2.31,1.04-2.31,2.31c0,1.27,1.04,2.31,2.31,2.31c0.79,0,1.5-0.4,1.91-1.02h9.46l3.29,3.28
			h-6.92l-1.83-1.83c-0.07-0.07-0.17-0.11-0.26-0.11h-5.1c-0.1,0-0.19,0.04-0.26,0.11l-2.43,2.44h-0.19
			c0.07-0.18,0.11-0.37,0.11-0.58c0-0.89-0.73-1.62-1.62-1.62c-0.89,0-1.62,0.73-1.62,1.62c0,0.89,0.73,1.62,1.62,1.62
			c0.35,0,0.67-0.11,0.94-0.3h0.91c0.1,0,0.2-0.04,0.26-0.11l2.44-2.44h4.79l1.83,1.83c0.07,0.06,0.16,0.11,0.26,0.11h7.83
			l0.84,0.84H37.23c0.02-0.1,0.02-0.2,0.02-0.3c0-1.27-1.04-2.31-2.31-2.31c-1.27,0-2.31,1.04-2.31,2.31c0,1.27,1.04,2.31,2.31,2.31
			c0.55,0,1.05-0.19,1.45-0.52h16.64l4.85,4.85v9.13c0,0.24,0.12,0.45,0.3,0.59c0,0-0.01,0-0.01,0.01l2.32,2.32
			c0.14,0.14,0.33,0.21,0.52,0.21h5.98l2.29,2.29c0.01-0.02,0.02-0.04,0.04-0.05c0.12,0.11,0.29,0.19,0.48,0.19h3.19
			c0.04,0,0.08-0.01,0.12-0.01c0.04,0,0.07,0.01,0.11,0.01c0.18,0,0.36-0.07,0.5-0.21l2.45-2.45c0.13-0.14,0.21-0.32,0.21-0.51
			v-6.82c0-0.19-0.08-0.37-0.21-0.5L61.59,67.33v-3.98c0-0.19-0.08-0.37-0.21-0.5l-8.73-8.72c-0.05-0.06-0.12-0.1-0.19-0.14
			l-0.73-0.73v-4.47c0-0.1-0.04-0.2-0.11-0.26l-3.51-3.51c0.22-0.32,0.35-0.7,0.35-1.11c0-1.1-0.89-1.98-1.98-1.98
			c-1.09,0-1.98,0.89-1.98,1.98c0,1.09,0.89,1.98,1.98,1.98c0.42,0,0.8-0.13,1.11-0.35l3.4,3.39v4h-2.65l-6.54-6.54v-5.67
			c0-0.2-0.08-0.38-0.21-0.52l-1.94-1.94v-10.9c0-0.1-0.04-0.2-0.11-0.26l-6.95-6.96c0.29-0.35,0.47-0.79,0.47-1.27
			c0-1.1-0.89-1.98-1.98-1.98c-1.1,0-1.98,0.89-1.98,1.98c0,1.09,0.89,1.98,1.98,1.98c0.34,0,0.65-0.09,0.93-0.24l6.9,6.9v10
			l-0.61-0.62v-8.06c0-0.1-0.04-0.2-0.11-0.26l-6.23-6.24c-0.07-0.07-0.17-0.11-0.26-0.11h-3.36l-1.45-1.45
			c0.86-0.22,1.49-0.99,1.49-1.91c0-1.1-0.89-1.98-1.98-1.98c-1.1,0-1.98,0.89-1.98,1.98c0,0.97,0.71,1.78,1.63,1.94v0.03
			c0,0.1,0.04,0.19,0.11,0.26l1.76,1.76c0.07,0.07,0.16,0.11,0.26,0.11h3.36L37.54,29v7.17l-0.63-0.64V29.6
			c0-0.1-0.04-0.2-0.11-0.26l-5.04-5.05c-0.07-0.07-0.16-0.11-0.26-0.11h-4.06l-5.45-5.46V18c1.6-0.19,2.85-1.56,2.85-3.22
			c0-1.59-1.14-2.91-2.65-3.19l-0.74-0.05c-0.48,0.02-0.92,0.14-1.32,0.35l-1.65-1.65c-0.06-0.06-0.14-0.1-0.23-0.1H16.4
			c-0.26-0.49-0.77-0.82-1.35-0.82c-0.84,0-1.52,0.69-1.52,1.52c0,0.84,0.69,1.52,1.52,1.52s1.52-0.68,1.52-1.52
			c0-0.02,0-0.04,0-0.06h1.54l1.45,1.46c-0.74,0.59-1.21,1.5-1.21,2.52c0,1.67,1.26,3.04,2.88,3.22v0.87c0,0.1,0.04,0.2,0.11,0.26
			l5.67,5.68c0.07,0.07,0.17,0.11,0.26,0.11h4.06l4.83,4.84v5.04l-0.19-0.19c-0.14-0.14-0.33-0.22-0.52-0.22h-2.6v-2.19
			c0-0.11-0.04-0.2-0.11-0.27l-1.04-1.04c0-0.01,0-0.01-0.01-0.01c0.13-0.22,0.2-0.48,0.2-0.76c0-0.84-0.69-1.52-1.52-1.52
			c-0.84,0-1.52,0.69-1.52,1.52c0,0.84,0.68,1.52,1.52,1.52c0.29,0,0.55-0.08,0.78-0.22c0,0,0.01,0,0.01,0.01l0.92,0.93v2.03h-3.35
			l-4.01-4.01c0.42-0.57,0.68-1.27,0.68-2.04c0-1.89-1.54-3.43-3.43-3.43c-0.4,0-0.8,0.08-1.16,0.21l0.05-0.05l-5.41-5.41
			c0.33-0.4,0.53-0.92,0.53-1.48c0-0.83-0.44-1.55-1.1-1.96v-1.11c0-0.08-0.03-0.17-0.09-0.23l-2.62-2.62
			c0.01-0.06,0.02-0.14,0.02-0.21c0-0.84-0.69-1.52-1.52-1.52c-0.84,0-1.52,0.68-1.52,1.52c0,0.84,0.68,1.52,1.52,1.52
			c0.52,0,0.98-0.26,1.25-0.66l2.32,2.33v0.7c-0.18-0.05-0.37-0.07-0.56-0.07c-0.43,0-0.83,0.12-1.17,0.32l-1.65-1.64
			c-0.06-0.06-0.14-0.1-0.23-0.1H8.79l-0.78-0.78v-1.57c0-0.08-0.04-0.17-0.1-0.23L7.3,11.27c0.1-0.2,0.17-0.44,0.17-0.68
			c0-0.84-0.68-1.52-1.52-1.52c-0.84,0-1.52,0.68-1.52,1.52c0,0.84,0.69,1.52,1.52,1.52c0.36,0,0.69-0.13,0.95-0.33l0.48,0.47v1.57
			c0,0.09,0.04,0.17,0.1,0.23l0.96,0.96c0.07,0.06,0.14,0.1,0.23,0.1h1.82l1.5,1.5c-0.39,0.41-0.63,0.97-0.63,1.58
			c0,1.27,1.04,2.31,2.31,2.31c0.16,0,0.32-0.02,0.46-0.05l5.44,5.44c-0.55,0.54-0.92,1.26-1.01,2.08h-3.02l-1-0.99l-2.35-2.35
			c0.13-0.23,0.21-0.49,0.21-0.77c0-0.89-0.73-1.62-1.63-1.62c-0.89,0-1.62,0.73-1.62,1.62c0,0.89,0.73,1.63,1.62,1.63
			c0.35,0,0.66-0.11,0.93-0.3L13,26.49l0,0l2.11,2.11c0.07,0.07,0.17,0.11,0.26,0.11h3.17c0.18,1.71,1.64,3.06,3.41,3.06
			c0.59,0,1.14-0.15,1.63-0.41l4.31,4.3c0.14,0.14,0.33,0.22,0.52,0.22h6.73l5.17,5.17v5.67c0,0.2,0.08,0.38,0.21,0.52l4.35,4.35
			h-4.39l-2.67-2.67v-6.34c0-0.1-0.04-0.2-0.11-0.27l-4.17-4.17c-0.07-0.07-0.17-0.11-0.27-0.11h-6.53l-2.67-2.67
			c-0.02-0.02-0.05-0.04-0.07-0.05c0.08-0.18,0.12-0.37,0.12-0.58c0-0.84-0.69-1.52-1.52-1.52c-0.84,0-1.52,0.68-1.52,1.52
			c0,0.84,0.68,1.52,1.52,1.52c0.36,0,0.68-0.13,0.94-0.33l2.78,2.77c0.07,0.07,0.17,0.11,0.27,0.11h6.53l3.94,3.95v5.41l-2.57-2.57
			c0.37-0.53,0.6-1.17,0.6-1.86c0-1.79-1.45-3.25-3.25-3.25c-1.79,0-3.24,1.46-3.24,3.25c0,1.79,1.45,3.24,3.24,3.24
			c0.7,0,1.34-0.22,1.86-0.59l6.17,6.17c0.1,0.11,0.25,0.17,0.39,0.17H46l1.51,1.51c0.14,0.14,0.33,0.21,0.52,0.21h2.77l0.93,0.94
			c0.02-0.03,0.05-0.06,0.07-0.08l8.37,8.37v3.98c0,0.18,0.07,0.36,0.21,0.5l14.58,14.58v6.24l-2.04,2.04h-0.99v-7.21
			c0-0.09-0.04-0.17-0.1-0.23l-6.63-6.63l-0.01-0.01c0.15-0.23,0.23-0.51,0.23-0.8c0-0.84-0.68-1.52-1.52-1.52
			c-0.84,0-1.52,0.68-1.52,1.52c0,0.84,0.68,1.52,1.52,1.52c0.32,0,0.61-0.1,0.85-0.26l6.53,6.53v7.08H70.1l-0.48-0.48
			c0.05-0.07,0.08-0.14,0.08-0.22v-4.59c0-0.1-0.04-0.19-0.11-0.26l-3.48-3.47c-0.07-0.07-0.16-0.11-0.26-0.11h-2.49
			c-0.34-0.28-0.77-0.46-1.25-0.46c-1.1,0-1.98,0.89-1.98,1.98c0,1.09,0.89,1.98,1.98,1.98c1.09,0,1.98-0.89,1.98-1.98
			c0-0.27-0.06-0.54-0.16-0.78h1.77l3.26,3.26v3.99l-1.13-1.12c-0.14-0.14-0.33-0.21-0.52-0.21h-5.97l-1.96-1.97v-9.17
			c0-0.29-0.16-0.52-0.39-0.65l-0.27-0.27v-2.29c0-0.1-0.04-0.19-0.11-0.26l-3.32-3.32v-3.06c0.75-0.29,1.28-1.01,1.28-1.85
			c0-1.1-0.89-1.98-1.98-1.98c-1.1,0-1.98,0.89-1.98,1.98c0,1.08,0.87,1.96,1.95,1.98v3.08c0,0.1,0.04,0.19,0.11,0.26l3.32,3.32
			v1.39l-4.1-4.09c-0.05-0.06-0.12-0.1-0.2-0.14v-2.96c0-0.1-0.04-0.2-0.11-0.26l-2.31-2.3v-1.2c0.95-0.15,1.68-0.96,1.68-1.95
			c0-1.1-0.89-1.98-1.98-1.98c-1.09,0-1.98,0.89-1.98,1.98c0,0.94,0.67,1.73,1.55,1.93v1.37c0,0.1,0.04,0.2,0.11,0.26l2.3,2.31v2.73
			h-0.95v-2.51c0-0.1-0.04-0.2-0.11-0.26l-3.37-3.36v-4.62c0-0.1-0.04-0.2-0.11-0.26l-0.43-0.43c0.04-0.13,0.06-0.27,0.06-0.4
			c0-0.89-0.73-1.63-1.62-1.63c-0.9,0-1.63,0.73-1.63,1.63c0,0.89,0.73,1.62,1.63,1.62c0.47,0,0.9-0.21,1.19-0.54l0.17,0.16v4.62
			c0,0.1,0.04,0.19,0.11,0.26l3.36,3.36v2.36h-1.44l-5.69-5.68v-2.73c0-0.15-0.06-0.29-0.16-0.39l-3.46-3.47
			c0.42-0.48,0.68-1.1,0.68-1.79c0-1.5-1.21-2.7-2.71-2.7c-0.48,0-0.93,0.12-1.32,0.35l-3.52-3.52c-0.07-0.07-0.17-0.11-0.27-0.11
			h-3.61l-5-4.99v-3.17c0-0.11-0.04-0.2-0.11-0.27l-3.08-3.09c0.11-0.21,0.17-0.45,0.17-0.7c0-0.84-0.68-1.52-1.52-1.52
			c-0.26,0-0.51,0.07-0.72,0.18c-0.02-0.05-0.05-0.09-0.08-0.13l-1.01-1.01v-2.42c0-0.11-0.04-0.2-0.11-0.27l-2.11-2.11
			c-0.07-0.07-0.17-0.11-0.27-0.11h-2.56l-0.73-0.73c0.17-0.25,0.28-0.55,0.28-0.88c0-0.84-0.69-1.52-1.52-1.52
			c-0.84,0-1.52,0.69-1.52,1.52c0,0.84,0.68,1.52,1.52,1.52c0.23,0,0.46-0.05,0.65-0.15c0.01,0.01,0.02,0.03,0.04,0.04l0.85,0.85
			c0.07,0.07,0.17,0.11,0.27,0.11h2.56l1.89,1.88v2.42c0,0.1,0.04,0.2,0.11,0.27l1.12,1.12c0.03,0.03,0.06,0.05,0.1,0.07
			c-0.17,0.24-0.27,0.54-0.27,0.86c0,0.84,0.68,1.52,1.52,1.52c0.3,0,0.6-0.09,0.83-0.24l2.94,2.94v3.18c0,0.1,0.04,0.2,0.11,0.27
			L29.29,52c0.07,0.07,0.17,0.11,0.27,0.11h3.61l3.34,3.34c-0.01,0.01-0.02,0.02-0.02,0.02l-0.45,0.62
			c-0.15,0.3-0.26,0.64-0.29,0.99h-3.03L13.88,38.23c-0.01-0.01-0.02-0.02-0.03-0.02c0.14-0.23,0.22-0.5,0.22-0.79
			c0-0.84-0.68-1.52-1.52-1.52c-0.84,0-1.52,0.68-1.52,1.52c0,0.84,0.69,1.52,1.52,1.52c0.32,0,0.62-0.1,0.87-0.27
			c0,0,0.01,0.01,0.01,0.01l18.39,18.39h-6.36l-7.72-7.72c0.49-0.54,0.8-1.25,0.8-2.03c0-1.64-1.34-2.98-2.98-2.98
			s-2.98,1.34-2.98,2.98c0,1.64,1.34,2.98,2.98,2.98C15.99,50.31,16.41,50.21,16.79,50.04z M35.45,62.21c-0.49,0-0.88-0.4-0.88-0.88
			c0-0.49,0.39-0.88,0.88-0.88c0.48,0,0.87,0.39,0.87,0.88C36.32,61.81,35.93,62.21,35.45,62.21z M31.97,66.43
			c-0.66,0-1.2-0.54-1.2-1.2c0-0.66,0.54-1.2,1.2-1.2c0.65,0,1.19,0.54,1.19,1.2C33.16,65.9,32.63,66.43,31.97,66.43z M28.12,70.72
			c-0.49,0-0.88-0.4-0.88-0.88c0-0.49,0.39-0.88,0.88-0.88c0.48,0,0.88,0.39,0.88,0.88C29.01,70.32,28.61,70.72,28.12,70.72z
			 M34.95,72.28c-0.66,0-1.2-0.54-1.2-1.2c0-0.66,0.54-1.2,1.2-1.2c0.65,0,1.19,0.54,1.19,1.2C36.14,71.75,35.6,72.28,34.95,72.28z
			 M46.47,45.14c-0.69,0-1.24-0.55-1.24-1.24c0-0.69,0.55-1.25,1.24-1.25c0.68,0,1.24,0.56,1.24,1.25
			C47.72,44.59,47.16,45.14,46.47,45.14z M31.07,20.12c-0.69,0-1.24-0.55-1.24-1.24c0-0.68,0.55-1.24,1.24-1.24
			c0.68,0,1.24,0.56,1.24,1.24C32.3,19.57,31.75,20.12,31.07,20.12z M25.13,18.88c0-0.68,0.55-1.24,1.24-1.24
			c0.69,0,1.24,0.56,1.24,1.24c0,0.69-0.55,1.24-1.24,1.24C25.69,20.12,25.13,19.57,25.13,18.88z M15.05,11.73
			c-0.49,0-0.88-0.39-0.88-0.88c0-0.49,0.39-0.88,0.88-0.88c0.48,0,0.88,0.39,0.88,0.88C15.92,11.34,15.53,11.73,15.05,11.73z
			 M19.45,14.78c0-1.18,0.96-2.13,2.13-2.13c1.17,0,2.13,0.95,2.13,2.13c0,1.17-0.96,2.13-2.13,2.13
			C20.41,16.91,19.45,15.95,19.45,14.78z M30.36,30.99c-0.48,0-0.88-0.39-0.88-0.88c0-0.48,0.39-0.88,0.88-0.88
			c0.49,0,0.88,0.4,0.88,0.88C31.24,30.6,30.85,30.99,30.36,30.99z M10.64,12.93c-0.48,0-0.88-0.39-0.88-0.88
			c0-0.48,0.4-0.88,0.88-0.88c0.49,0,0.88,0.39,0.88,0.88C11.52,12.54,11.13,12.93,10.64,12.93z M5.94,11.46
			c-0.49,0-0.88-0.4-0.88-0.88c0-0.48,0.39-0.88,0.88-0.88c0.48,0,0.88,0.4,0.88,0.88C6.82,11.06,6.42,11.46,5.94,11.46z
			 M13.65,19.38c-0.66,0-1.2-0.54-1.2-1.2c0-0.65,0.54-1.2,1.2-1.2c0.66,0,1.2,0.54,1.2,1.2C14.85,18.84,14.31,19.38,13.65,19.38z
			 M10.76,24.72c-0.48,0-0.88-0.39-0.88-0.88c0-0.48,0.39-0.88,0.88-0.88c0.49,0,0.88,0.4,0.88,0.88
			C11.65,24.33,11.25,24.72,10.76,24.72z M21.95,30.28c-1.07,0-1.95-0.87-1.95-1.94c0-1.07,0.88-1.95,1.95-1.95s1.95,0.87,1.95,1.95
			C23.9,29.41,23.03,30.28,21.95,30.28z M22.59,35.59c-0.48,0-0.88-0.4-0.88-0.88c0-0.48,0.4-0.88,0.88-0.88
			c0.49,0,0.88,0.4,0.88,0.88C23.47,35.19,23.07,35.59,22.59,35.59z M31.84,45.84c-1.17,0-2.13-0.95-2.13-2.13
			c0-1.17,0.95-2.13,2.13-2.13c1.18,0,2.13,0.96,2.13,2.13C33.97,44.88,33.01,45.84,31.84,45.84z M63.91,77
			c-0.48,0-0.88-0.4-0.88-0.88c0-0.48,0.4-0.88,0.88-0.88c0.48,0,0.88,0.4,0.88,0.88C64.79,76.6,64.39,77,63.91,77z M62.11,84.61
			c-0.69,0-1.25-0.55-1.25-1.24c0-0.68,0.56-1.24,1.25-1.24c0.68,0,1.24,0.55,1.24,1.24C63.35,84.06,62.79,84.61,62.11,84.61z
			 M54.57,66.91c-0.68,0-1.24-0.55-1.24-1.24c0-0.69,0.56-1.25,1.24-1.25c0.69,0,1.24,0.56,1.24,1.25
			C55.81,66.35,55.26,66.91,54.57,66.91z M49.72,62.8c0-0.68,0.55-1.24,1.24-1.24c0.69,0,1.25,0.56,1.25,1.24
			c0,0.68-0.56,1.24-1.25,1.24C50.27,64.04,49.72,63.48,49.72,62.8z M46.4,60.42c-0.49,0-0.88-0.4-0.88-0.88
			c0-0.49,0.39-0.88,0.88-0.88c0.48,0,0.88,0.39,0.88,0.88C47.28,60.02,46.88,60.42,46.4,60.42z M38.45,55.73
			c0.88,0,1.6,0.71,1.6,1.6c0,0.87-0.71,1.59-1.6,1.59c-0.87,0-1.59-0.71-1.59-1.59C36.86,56.45,37.58,55.73,38.45,55.73z
			 M11.34,30.99c-0.48,0-0.88-0.39-0.88-0.88c0-0.48,0.39-0.88,0.88-0.88c0.49,0,0.88,0.4,0.88,0.88
			C12.22,30.6,11.83,30.99,11.34,30.99z M20.19,39.99c-0.49,0-0.88-0.39-0.88-0.88c0-0.49,0.39-0.88,0.88-0.88
			c0.48,0,0.88,0.39,0.88,0.88C21.06,39.6,20.67,39.99,20.19,39.99z M12.55,38.3c-0.48,0-0.88-0.39-0.88-0.88
			c0-0.48,0.4-0.87,0.88-0.87c0.48,0,0.88,0.39,0.88,0.87C13.43,37.91,13.03,38.3,12.55,38.3z M13.74,47.32
			c0-1.01,0.82-1.82,1.82-1.82s1.82,0.82,1.82,1.82c0,1.01-0.82,1.82-1.82,1.82S13.74,48.33,13.74,47.32z"/>
		<path class="st0" d="M25.69,64.5c-0.85,0-1.52,0.69-1.52,1.52c0,0.84,0.68,1.52,1.52,1.52c0.84,0,1.52-0.68,1.52-1.52
			C27.21,65.19,26.53,64.5,25.69,64.5z M25.69,66.91c-0.49,0-0.88-0.4-0.88-0.88c0-0.49,0.39-0.88,0.88-0.88
			c0.48,0,0.87,0.39,0.87,0.88C26.56,66.51,26.17,66.91,25.69,66.91z"/>
		<path class="st0" d="M87.9,71.13c-0.12,0-0.24,0.02-0.36,0.04c0-0.01,0-0.02,0-0.04v-1.23c0-0.1-0.04-0.2-0.11-0.27l-1.34-1.34
			V56.67c0-0.08-0.03-0.17-0.1-0.23l-4.9-4.91v-2.2c0-0.05-0.01-0.09-0.03-0.13c0.7-0.14,1.23-0.76,1.23-1.49
			c0-0.84-0.68-1.52-1.52-1.52c-0.84,0-1.52,0.68-1.52,1.52c0,0.74,0.53,1.36,1.23,1.49c-0.02,0.04-0.03,0.08-0.03,0.13v2.33
			c0,0.09,0.03,0.17,0.1,0.23l4.9,4.9v10.84l-2.3-2.3v-3.16c0-0.11-0.04-0.2-0.11-0.27l-1.49-1.49v-5.79c0-0.09-0.04-0.17-0.1-0.23
			l-4.92-4.91c0,0,0-6.13,0-7.19c0.71-0.13,1.26-0.75,1.26-1.5c0-0.84-0.68-1.52-1.52-1.52c-0.84,0-1.52,0.68-1.52,1.52
			c0,0.71,0.49,1.3,1.14,1.47v7.34c0,0.08,0.04,0.17,0.1,0.23l4.92,4.92v5.02l-6.25-6.25V45.9c0-0.09-0.03-0.17-0.09-0.23
			l-2.86-2.86v-6.27c0.8-0.05,1.44-0.71,1.44-1.52c0-0.84-0.69-1.52-1.52-1.52c-0.84,0-1.52,0.68-1.52,1.52
			c0,0.64,0.4,1.19,0.96,1.42v6.51c0,0.08,0.04,0.17,0.1,0.23L74,46.03v6.85l-5.6-5.6c0-0.01,0-0.02,0-0.03v-9.34
			c0-0.15-0.06-0.3-0.17-0.41l-7.85-7.85c1.33-0.35,2.32-1.56,2.32-3.01c0-1.71-1.39-3.1-3.1-3.1c-1.71,0-3.11,1.39-3.11,3.1
			c0,1.52,1.09,2.78,2.53,3.06c0.01,0.15,0.06,0.29,0.17,0.4l8.05,8.05v3.39L53.99,28.3v-5.22c0-0.09-0.04-0.17-0.1-0.23l-1.8-1.8
			c0.14-0.1,0.26-0.21,0.36-0.35c0.17-0.25,0.27-0.54,0.27-0.86c0-0.82-0.66-1.48-1.48-1.48c-0.82,0-1.48,0.66-1.48,1.48
			c0,0.82,0.66,1.48,1.48,1.48c0.08,0,0.16-0.01,0.24-0.02c0.01,0.05,0.04,0.1,0.08,0.14l1.78,1.78v4.45l-2.17-2.17
			c-0.07-0.07-0.17-0.11-0.27-0.11h-3.1c-0.01-0.05-0.04-0.09-0.07-0.12l-2.95-2.95v-2.86l0.71-0.71c0.17,0.06,0.35,0.1,0.54,0.1
			c0.84,0,1.52-0.68,1.52-1.52c0-0.84-0.69-1.52-1.52-1.52c-0.84,0-1.52,0.68-1.52,1.52c0,0.42,0.16,0.79,0.44,1.07l-0.71,0.71
			c-0.07,0.06-0.1,0.14-0.1,0.23v3.13c0,0.08,0.03,0.17,0.1,0.23l2.71,2.71h-2.2l-4.84-4.83v-3.67c0-0.02,0-0.04-0.01-0.05
			c0.8-0.05,1.43-0.71,1.43-1.52c0-0.84-0.69-1.52-1.52-1.52c-0.84,0-1.52,0.68-1.52,1.52c0,0.62,0.37,1.15,0.9,1.39
			c-0.03,0.05-0.05,0.12-0.05,0.18v3.83c0,0.1,0.04,0.2,0.11,0.27l5.06,5.06c0.07,0.07,0.17,0.11,0.27,0.11h6.16l16.5,16.5v3.48
			l-1.26-1.26c-0.07-0.07-0.17-0.11-0.27-0.11h-1.64l-5.04-5.04c-0.07-0.07-0.17-0.11-0.27-0.11h-3.01l-1.61-1.61v-5.64
			c0-0.09-0.04-0.17-0.1-0.23l-4.47-4.47c-0.06-0.06-0.14-0.1-0.23-0.1h-6.32l-7.21-7.21v-4.81c0.66-0.15,1.16-0.74,1.16-1.45
			c0-0.82-0.67-1.48-1.48-1.48c-0.81,0-1.48,0.67-1.48,1.48c0,0.71,0.5,1.3,1.16,1.45v1.87l-4.89-4.88c-0.06-0.06-0.14-0.1-0.23-0.1
			h-0.68h-0.01c-0.09-0.73-0.71-1.3-1.47-1.3c-0.82,0-1.48,0.67-1.48,1.48s0.66,1.48,1.48,1.48c0.49,0,0.93-0.25,1.2-0.61
			c0.08-0.13,0.15-0.27,0.2-0.42c0.02,0.01,0.05,0.01,0.07,0.01h0.55l5.25,5.25v2.16c0,0.08,0.03,0.17,0.1,0.23l7.4,7.4
			c0.06,0.06,0.14,0.1,0.23,0.1h6.31l4.28,4.28v4.86l-1.01-1.01V33.8c0-0.08-0.03-0.17-0.09-0.23l-3.5-3.5
			c-0.06-0.06-0.14-0.1-0.23-0.1h-6.05c-0.27-0.23-0.61-0.35-0.97-0.35c-0.85,0-1.52,0.68-1.52,1.52c0,0.84,0.68,1.52,1.52,1.52
			c0.84,0,1.52-0.69,1.52-1.52c0-0.19-0.03-0.36-0.1-0.53h5.46l3.31,3.32v1.76l-1.78-1.79c-0.08-0.07-0.17-0.11-0.27-0.11h-2.46
			l-0.14-0.14c0.07-0.18,0.11-0.37,0.11-0.57c0-0.84-0.68-1.52-1.52-1.52c-0.84,0-1.52,0.68-1.52,1.52c0,0.84,0.69,1.52,1.52,1.52
			c0.35,0,0.67-0.13,0.93-0.33l0.15,0.15c0.05,0.05,0.1,0.07,0.16,0.1c0.05,0.02,0.11,0.04,0.17,0.04h2.44l5.69,5.69
			c0.07,0.07,0.17,0.11,0.27,0.11h3.01l5.03,5.04c0.07,0.07,0.17,0.11,0.27,0.11h1.64l16.82,16.83v3.16c0,0.1,0.04,0.2,0.11,0.27
			l4.28,4.28v1.07c0,0.14,0.08,0.26,0.18,0.33c-0.35,0.28-0.57,0.71-0.57,1.19c0,0.83,0.68,1.52,1.52,1.52
			c0.84,0,1.52-0.68,1.52-1.52C89.42,71.81,88.74,71.13,87.9,71.13z M79.89,47.72c0-0.49,0.39-0.88,0.88-0.88
			c0.48,0,0.87,0.39,0.87,0.88c0,0.48-0.39,0.88-0.87,0.88C80.28,48.59,79.89,48.2,79.89,47.72z M75.38,40.8
			c0-0.48,0.39-0.88,0.88-0.88c0.48,0,0.88,0.39,0.88,0.88c0,0.49-0.39,0.88-0.88,0.88C75.78,41.68,75.38,41.29,75.38,40.8z
			 M70.73,35.02c0-0.48,0.39-0.88,0.88-0.88c0.48,0,0.88,0.4,0.88,0.88c0,0.48-0.4,0.88-0.88,0.88
			C71.12,35.9,70.73,35.5,70.73,35.02z M57.65,26.65c0-1.07,0.87-1.95,1.95-1.95c1.07,0,1.95,0.87,1.95,1.95
			c0,1.08-0.88,1.95-1.95,1.95C58.52,28.6,57.65,27.73,57.65,26.65z M51.25,20.56c-0.41,0-0.75-0.33-0.75-0.74
			c0-0.41,0.33-0.75,0.75-0.75c0.4,0,0.74,0.33,0.74,0.75C51.99,20.23,51.65,20.56,51.25,20.56z M46.02,16.42
			c0.49,0,0.88,0.39,0.88,0.87c0,0.49-0.39,0.88-0.88,0.88c-0.48,0-0.88-0.39-0.88-0.88C45.14,16.81,45.54,16.42,46.02,16.42z
			 M38.92,15.29c0-0.49,0.4-0.88,0.88-0.88c0.48,0,0.88,0.39,0.88,0.88c0,0.48-0.4,0.88-0.88,0.88
			C39.32,16.17,38.92,15.77,38.92,15.29z M27.91,13.35c-0.41,0-0.74-0.33-0.74-0.74c0-0.4,0.33-0.74,0.74-0.74
			c0.4,0,0.74,0.33,0.74,0.74C28.65,13.02,28.32,13.35,27.91,13.35z M34.76,14.09c0-0.41,0.33-0.74,0.74-0.74
			c0.4,0,0.74,0.33,0.74,0.74c0,0.41-0.33,0.74-0.74,0.74C35.09,14.83,34.76,14.5,34.76,14.09z M41.65,32.03
			c-0.49,0-0.88-0.4-0.88-0.88c0-0.48,0.39-0.88,0.88-0.88c0.23,0,0.45,0.1,0.62,0.26c0.17,0.16,0.26,0.39,0.26,0.62
			C42.52,31.63,42.13,32.03,41.65,32.03z M45.78,33.97c-0.48,0-0.88-0.4-0.88-0.88c0-0.48,0.4-0.88,0.88-0.88
			c0.48,0,0.88,0.4,0.88,0.88C46.66,33.57,46.26,33.97,45.78,33.97z M87.9,73.53c-0.48,0-0.87-0.39-0.87-0.88
			c0-0.49,0.39-0.88,0.87-0.88c0.49,0,0.88,0.39,0.88,0.88C88.78,73.13,88.38,73.53,87.9,73.53z"/>
		<path class="st0" d="M71.38,48.28c0.83,0,1.52-0.69,1.52-1.52c0-0.84-0.69-1.52-1.52-1.52c-0.84,0-1.52,0.68-1.52,1.52
			C69.85,47.6,70.54,48.28,71.38,48.28z M71.38,45.88c0.48,0,0.87,0.39,0.87,0.88c0,0.48-0.39,0.88-0.87,0.88
			c-0.49,0-0.88-0.4-0.88-0.88C70.5,46.27,70.89,45.88,71.38,45.88z"/>
		<path class="st0" d="M58.32,36.22c0-0.84-0.68-1.52-1.52-1.52c-0.84,0-1.52,0.68-1.52,1.52c0,0.84,0.69,1.52,1.52,1.52
			C57.64,37.74,58.32,37.06,58.32,36.22z M55.92,36.22c0-0.49,0.39-0.88,0.88-0.88c0.48,0,0.88,0.39,0.88,0.88
			c0,0.48-0.39,0.88-0.88,0.88C56.31,37.1,55.92,36.71,55.92,36.22z"/>
	</g>
	<g>
		<path class="st0" d="M144.93,97.84c-0.8,0-1.44,0.66-1.44,1.45c0,0.46,0.21,0.88,0.56,1.14l-4.33,4.37
			c-0.07,0.07-0.12,0.18-0.12,0.27v1.55c-0.02,0-0.05-0.01-0.07-0.01c-0.64,0-1.19,0.43-1.37,1.01h-18.74
			c-0.12,0-0.23,0.05-0.31,0.13l-5.81,5.86c-0.08,0.08-0.13,0.2-0.13,0.31v6.04c0,0.11,0.05,0.23,0.13,0.31l2.74,2.76
			c0.08,0.08,0.19,0.13,0.31,0.13h7.37c0.12,0,0.23-0.05,0.31-0.13l4.1-4.15c0.17,0.07,0.36,0.11,0.55,0.11
			c0.8,0,1.44-0.65,1.44-1.45c0-0.8-0.65-1.45-1.44-1.45c-0.8,0-1.44,0.65-1.44,1.45c0,0.29,0.08,0.55,0.21,0.77l-3.92,3.96h-6.99
			l-2.48-2.5v-5.66l5.54-5.6h18.54c0.19,0.58,0.74,1.01,1.37,1.01c0.8,0,1.45-0.65,1.45-1.45c0-0.49-0.24-0.92-0.61-1.19v-1.66
			l4.45-4.49c0.05,0,0.08,0,0.12,0c0.8,0,1.44-0.65,1.44-1.45C146.37,98.49,145.73,97.84,144.93,97.84z M128.67,116.73
			c0.44,0,0.81,0.37,0.81,0.82c0,0.45-0.37,0.82-0.81,0.82c-0.45,0-0.81-0.37-0.81-0.82C127.86,117.1,128.22,116.73,128.67,116.73z
			 M139.51,108.89c-0.44,0-0.81-0.37-0.81-0.81c0-0.45,0.37-0.82,0.82-0.82c0.44,0,0.81,0.37,0.81,0.82
			C140.33,108.52,139.96,108.89,139.51,108.89z M144.93,100.11c-0.06,0-0.11-0.01-0.15-0.02c-0.05-0.02-0.1-0.04-0.15-0.04
			c-0.3-0.13-0.5-0.42-0.5-0.76c0-0.45,0.36-0.82,0.81-0.82c0.44,0,0.81,0.37,0.81,0.82C145.74,99.74,145.37,100.11,144.93,100.11z"
			/>
		<path class="st0" d="M135.5,116.09c-0.77,0-1.41,0.62-1.44,1.38h-1.18l-3.3-3.32c-0.06-0.06-0.14-0.1-0.23-0.1h-2.22
			c-0.08,0-0.17,0.04-0.23,0.1l-3.04,3.19c-0.18-0.07-0.37-0.12-0.58-0.12c-0.8,0-1.44,0.65-1.44,1.45c0,0.81,0.65,1.47,1.44,1.47
			c0.8,0,1.45-0.66,1.45-1.47c0-0.36-0.14-0.69-0.36-0.95l2.89-3.02h1.94l3.3,3.32c0.06,0.06,0.14,0.1,0.23,0.1h1.43
			c0.23,0.51,0.73,0.88,1.32,0.88c0.8,0,1.44-0.65,1.44-1.45C136.94,116.75,136.29,116.09,135.5,116.09z M123.29,119.5
			c-0.44,0-0.81-0.37-0.81-0.82c0-0.44,0.37-0.81,0.81-0.81c0.45,0,0.82,0.37,0.82,0.81C124.11,119.13,123.74,119.5,123.29,119.5z
			 M135.5,118.37c-0.44,0-0.81-0.37-0.81-0.82c0-0.45,0.37-0.82,0.81-0.82c0.45,0,0.81,0.37,0.81,0.82
			C136.31,118,135.95,118.37,135.5,118.37z"/>
		<path class="st0" d="M142.21,97.31l-2.61-2.63c-0.08-0.08-0.2-0.13-0.31-0.13h-1.57c-0.01,0-0.02,0-0.04,0.01
			c-0.1-0.71-0.7-1.27-1.43-1.27c-0.8,0-1.44,0.65-1.44,1.45c0,0.8,0.64,1.45,1.44,1.45c0.56,0,1.05-0.32,1.29-0.8
			c0.06,0.04,0.12,0.05,0.18,0.05h1.38l2.35,2.37l-0.11,2.1l-5.79,5.84h-14.7l-2.62-2.63c-0.06-0.06-0.14-0.1-0.23-0.1h-5.03
			c-0.1,0-0.17,0.04-0.23,0.1l-2.7,2.71h-1.83l3.73-3.76h8.43l2.55,2.58c0.06,0.06,0.14,0.1,0.23,0.1h11.2c0.1,0,0.17-0.04,0.23-0.1
			l4.23-4.26c0.06-0.06,0.1-0.14,0.1-0.23v-1.3c0-0.08-0.04-0.17-0.1-0.23l-1.32-1.33c-0.06-0.06-0.14-0.1-0.23-0.1h-1.76
			l-2.39-2.42c-0.06-0.05-0.14-0.09-0.23-0.09h-1.68c-0.18,0-0.32,0.14-0.32,0.32c0,0.18,0.14,0.32,0.32,0.32h1.55l2.41,2.42
			c0.06,0.06,0.13,0.1,0.21,0.1h1.76l1.14,1.14v1.04l-3.74,3.78c-0.01-0.01-0.02-0.02-0.04-0.05l-2.81-2.82
			c-0.06-0.06-0.14-0.1-0.23-0.1h-7.59c-0.08,0-0.17,0.04-0.23,0.1l-1.72,1.73c-0.01,0.01-0.02,0.02-0.04,0.04l-1.17-1.18
			c-0.07-0.07-0.18-0.1-0.27-0.08h-8.64c-0.08,0-0.17,0.04-0.23,0.1l-1.6,1.61c-0.04-0.01-0.09-0.02-0.14-0.02h-3.37
			c-0.08,0-0.17,0.02-0.23,0.08l-1.56,1.57c-0.1-0.01-0.19-0.02-0.29-0.02c-0.79,0-1.44,0.64-1.44,1.45c0,0.35,0.12,0.65,0.32,0.9
			l0,0l-1.17,1.18c-0.06,0.06-0.09,0.14-0.09,0.23v1.14c0,0.08,0.03,0.15,0.09,0.21l0.9,0.92c0.06,0.06,0.14,0.1,0.23,0.1h3.71
			c0.08,0,0.17-0.04,0.23-0.1l1.45-1.46h1.96l-3.41,3.43h-2.31c-0.18-0.6-0.73-1.02-1.38-1.02c-0.8,0-1.44,0.65-1.44,1.45
			c0,0.81,0.64,1.45,1.44,1.45c0.73,0,1.33-0.54,1.43-1.25h2.38c0.08,0,0.16-0.02,0.22-0.08l6.09-6.13l0,0
			c0.15,0.06,0.32,0.1,0.5,0.1c0.8,0,1.45-0.65,1.44-1.45c0-0.81-0.64-1.46-1.44-1.46c-0.8,0-1.44,0.65-1.44,1.46
			c0,0.38,0.15,0.74,0.4,1l-1.88,1.88c-0.02,0-0.06-0.01-0.1-0.01h-2.61c-0.08,0-0.17,0.04-0.23,0.1l-1.45,1.47h-3.45l-0.71-0.73
			l-0.01-0.87l1.08-1.08c0.02-0.01,0.03-0.04,0.04-0.06c0.19,0.1,0.41,0.15,0.64,0.15c0.7,0,1.29-0.51,1.41-1.18h4.36
			c0.08,0,0.17-0.04,0.22-0.1l2.7-2.73h4.78l2.08,2.1h-3.13c-0.11,0-0.23,0.05-0.31,0.13l-8.12,8.18c-0.08,0.08-0.13,0.2-0.13,0.32
			v4.68c0,0.12,0.05,0.24,0.13,0.32l0.85,0.85c-0.05,0.15-0.08,0.31-0.08,0.48c0,0.8,0.65,1.45,1.45,1.45c0.8,0,1.44-0.65,1.44-1.45
			c0-0.8-0.64-1.45-1.44-1.45c-0.31,0-0.59,0.1-0.83,0.26l-0.63-0.63v-4.32l7.86-7.92h18.72c0.11,0,0.23-0.05,0.31-0.13l6.04-6.09
			c0.07-0.08,0.12-0.18,0.13-0.3l0.12-2.46C142.36,97.53,142.31,97.41,142.21,97.31z M136.26,95.56c-0.45,0-0.81-0.37-0.81-0.82
			c0-0.45,0.36-0.82,0.81-0.82c0.44,0,0.81,0.36,0.81,0.82C137.07,95.19,136.7,95.56,136.26,95.56z M122.38,103.11l1.63-1.64h7.32
			l2.61,2.63H123.3l-0.95-0.95C122.36,103.14,122.37,103.12,122.38,103.11z M103.51,114c-0.45,0-0.81-0.37-0.81-0.82
			s0.36-0.82,0.81-0.82c0.45,0,0.81,0.37,0.81,0.82S103.96,114,103.51,114z M114.13,104.98c0.45,0,0.82,0.37,0.81,0.82
			c0.01,0.45-0.36,0.81-0.81,0.81c-0.44,0-0.81-0.36-0.81-0.81C113.32,105.35,113.69,104.98,114.13,104.98z M104.42,107.01
			c-0.45,0-0.81-0.36-0.81-0.81s0.36-0.82,0.81-0.82c0.45,0,0.81,0.37,0.81,0.82S104.86,107.01,104.42,107.01z M105.81,105.83
			c-0.08-0.31-0.25-0.57-0.49-0.76l1.3-1.32h2.77l-2.07,2.08H105.81z M110.61,119.88c0.44,0,0.81,0.37,0.81,0.82
			c0,0.45-0.37,0.82-0.81,0.82c-0.45,0-0.82-0.37-0.82-0.82C109.8,120.25,110.16,119.88,110.61,119.88z"/>
		<path class="st0" d="M146.99,108.83c-0.8,0-1.44,0.65-1.44,1.46c0,0.05,0,0.11,0.01,0.17h-1.32c-0.12,0-0.23,0.04-0.31,0.13
			l-4.51,4.54h-1.79l-1.44-1.45c-0.08-0.08-0.19-0.13-0.31-0.13h-1.68c-0.04,0-0.06,0.01-0.08,0.01c-0.25-0.45-0.73-0.76-1.27-0.76
			c-0.8,0-1.44,0.65-1.44,1.45c0,0.81,0.64,1.45,1.44,1.45c0.73,0,1.33-0.55,1.43-1.26h1.43l1.44,1.45
			c0.08,0.08,0.19,0.13,0.31,0.13h2.14c0.12,0,0.24-0.05,0.32-0.13l4.5-4.55h1.18c0.12,0,0.21-0.04,0.3-0.11
			c0.26,0.31,0.65,0.51,1.1,0.51c0.8,0,1.44-0.65,1.44-1.45C148.43,109.48,147.79,108.83,146.99,108.83z M132.84,115.07
			c-0.45,0-0.81-0.37-0.81-0.82c0-0.45,0.36-0.82,0.81-0.82s0.81,0.37,0.81,0.82C133.65,114.7,133.29,115.07,132.84,115.07z
			 M146.99,111.1c-0.45,0-0.81-0.37-0.81-0.81c0-0.45,0.36-0.82,0.81-0.82c0.44,0,0.81,0.37,0.81,0.82
			C147.8,110.74,147.43,111.1,146.99,111.1z"/>
		<path class="st0" d="M135.13,101.43c0.8,0,1.44-0.65,1.44-1.46c0-0.8-0.64-1.45-1.44-1.45c-0.31,0-0.6,0.11-0.83,0.27l-4.69-4.74
			c-0.06-0.06-0.14-0.09-0.23-0.09h-6.5c-0.18,0-0.32,0.14-0.32,0.32c0,0.17,0.14,0.32,0.32,0.32h6.38l4.62,4.66
			c-0.12,0.21-0.19,0.46-0.19,0.71C133.68,100.78,134.33,101.43,135.13,101.43z M135.94,99.97c0,0.45-0.36,0.82-0.81,0.82
			c-0.45,0-0.81-0.37-0.81-0.82c0-0.44,0.36-0.81,0.81-0.81C135.58,99.16,135.94,99.52,135.94,99.97z"/>
		<path class="st0" d="M153.36,105.48c-0.63,0-1.18,0.42-1.37,0.99l-0.52-0.54c-0.06-0.06-0.14-0.1-0.23-0.1h-6.66
			c-0.08,0-0.17,0.04-0.23,0.1l-1.54,1.54v-1.38l2.74-2.75h1.23c0.23,0.51,0.74,0.88,1.33,0.88c0.79,0,1.44-0.65,1.44-1.46
			c0-0.8-0.65-1.45-1.44-1.45c-0.69,0-1.26,0.49-1.42,1.14h-1.32c-0.12,0-0.23,0.05-0.31,0.13l-3,3.01
			c-0.08,0.08-0.13,0.2-0.13,0.32v3.87l-1.48,1.5h-20.41c-0.12,0-0.23,0.05-0.31,0.13l-1.89,1.91c-0.08,0.08-0.13,0.2-0.13,0.32
			v4.06l-0.58,0.58c-0.01,0.01-0.01,0.01-0.02,0.02c-0.21-0.13-0.45-0.2-0.71-0.2c-0.8,0-1.45,0.65-1.44,1.46
			c0,0.8,0.64,1.45,1.44,1.45c0.8,0,1.44-0.65,1.44-1.45c0-0.23-0.05-0.43-0.13-0.61c0.01-0.01,0.04-0.04,0.05-0.05l0.71-0.71
			c0.08-0.08,0.13-0.2,0.13-0.32v-4.06l1.63-1.64l20.42-0.01c0.12,0.01,0.23-0.05,0.31-0.12l1.75-1.76
			c0.07-0.08,0.12-0.19,0.12-0.31v-1.6l1.89-1.9h6.4l0.87,0.88c0.17,0.6,0.73,1.04,1.38,1.04c0.8,0,1.44-0.65,1.44-1.45
			C154.8,106.14,154.16,105.48,153.36,105.48z M148.12,101.95c0.44,0,0.81,0.37,0.81,0.81c0,0.45-0.37,0.82-0.81,0.82
			c-0.45,0-0.82-0.37-0.82-0.82C147.3,102.31,147.67,101.95,148.12,101.95z M116.39,120.38c-0.45,0-0.82-0.37-0.81-0.81
			c0-0.45,0.36-0.82,0.81-0.82c0.44,0,0.81,0.37,0.81,0.82C117.2,120.01,116.83,120.38,116.39,120.38z M153.36,107.76
			c-0.21,0-0.42-0.08-0.56-0.23c0.04-0.11,0.01-0.24-0.07-0.33l-0.18-0.17c0-0.04,0-0.06,0-0.1c0-0.45,0.36-0.82,0.81-0.82
			c0.44,0,0.81,0.37,0.81,0.82C154.17,107.39,153.8,107.76,153.36,107.76z"/>
		<path class="st0" d="M130.57,91.08c-0.64,0-1.19,0.42-1.37,1.01h-6.24c-0.08,0-0.17,0.04-0.23,0.1l-3.99,4.03h-7.85
			c-0.14-0.65-0.71-1.14-1.4-1.14c-0.8,0-1.44,0.65-1.44,1.46c0,0.8,0.64,1.45,1.44,1.45c0.69,0,1.26-0.49,1.4-1.14h7.98
			c0.08,0,0.17-0.02,0.23-0.08l3.99-4.04h6.05c0.08,0.71,0.69,1.27,1.43,1.27c0.79,0,1.44-0.65,1.44-1.46
			C132.01,91.73,131.35,91.08,130.57,91.08z M109.48,97.36c-0.45-0.01-0.81-0.37-0.81-0.82s0.36-0.82,0.81-0.82
			c0.45,0,0.81,0.37,0.81,0.82S109.93,97.35,109.48,97.36z M130.57,93.35c-0.45,0-0.82-0.36-0.82-0.82c0-0.45,0.37-0.82,0.82-0.82
			c0.44,0,0.81,0.37,0.81,0.82C131.37,92.99,131.01,93.35,130.57,93.35z"/>
		<path class="st0" d="M113.75,95.73c0.69,0,1.26-0.48,1.4-1.13h3.97c0.18,0,0.32-0.14,0.32-0.32c0-0.18-0.14-0.32-0.32-0.32h-3.97
			c-0.14-0.65-0.71-1.14-1.4-1.14c-0.8,0-1.44,0.65-1.44,1.46C112.31,95.09,112.95,95.73,113.75,95.73z M113.75,93.46
			c0.44,0,0.81,0.37,0.81,0.82c0,0.45-0.37,0.82-0.81,0.82c-0.45,0-0.81-0.37-0.81-0.82C112.94,93.83,113.3,93.46,113.75,93.46z"/>
		<path class="st0" d="M124.6,95.3c-0.8,0-1.44,0.64-1.44,1.45c0,0.8,0.64,1.45,1.44,1.45c0.57,0,1.06-0.33,1.3-0.82h3.27
			c0.08,0,0.15-0.02,0.21-0.08l0.68-0.69c0.13-0.12,0.13-0.32,0-0.45c-0.12-0.12-0.32-0.12-0.44,0l-0.58,0.6h-3l0,0
			C126.04,95.94,125.4,95.3,124.6,95.3z M124.6,97.57c-0.45,0-0.81-0.37-0.81-0.82c0-0.45,0.36-0.82,0.81-0.82
			c0.44,0,0.81,0.37,0.81,0.82C125.41,97.21,125.04,97.57,124.6,97.57z"/>
	</g>
	<path class="st0" d="M103.11,99.3c-0.4,0-0.77,0.19-1.02,0.46h-5.9c-0.23,0-0.43,0.08-0.59,0.21c-0.06,0.04-0.12,0.08-0.17,0.13
		l-2.41,2.42c-0.09-0.02-0.18-0.04-0.28-0.04h-6.41l7.43-7.43c0.32-0.31,0.44-0.73,0.39-1.14c0-0.05,0.02-0.1,0.02-0.15v-6.94
		c0-0.01-0.01-0.02-0.01-0.03V70.93l6.55-6.54c0.14,0.05,0.29,0.08,0.45,0.08c0.76,0,1.39-0.63,1.39-1.39
		c0-0.76-0.63-1.38-1.39-1.38c-0.76,0-1.38,0.62-1.38,1.38c0,0.02,0,0.04,0.01,0.05l-6.94,6.94c-0.14,0.14-0.23,0.34-0.23,0.54
		v14.56l-5.34-5.34c-0.02-0.74-0.63-1.34-1.38-1.34c-0.76,0-1.38,0.62-1.38,1.38c0,0.77,0.62,1.39,1.38,1.39
		c0.07,0,0.12-0.01,0.18-0.02l5.88,5.88c0.02,0.02,0.04,0.03,0.05,0.04v5.77c-0.08,0.05-0.15,0.1-0.21,0.17l-21.06,21.05
		c-0.07,0-0.14-0.01-0.21-0.01h-6.01c-0.34-0.27-0.77-0.44-1.24-0.44c-1.1,0-1.99,0.89-1.99,1.99c0,1.1,0.89,1.99,1.99,1.99
		c0.27,0,0.52-0.05,0.76-0.15c0.01,0,0.02,0.01,0.04,0.01h6.46c0.04,0,0.08-0.01,0.12-0.01c0.02,0,0.04,0.01,0.06,0.01
		c0.36,0,0.71-0.14,0.98-0.42l12.17-12.17c0.01,0,0.03,0.01,0.04,0.01h8.83c0.44,0,0.82-0.23,1.04-0.57l2.77-2.78h5.56
		c0.25,0.29,0.61,0.46,1.02,0.46c0.77,0,1.39-0.62,1.39-1.38C104.49,99.92,103.87,99.3,103.11,99.3z M101.16,62.31
		c0.42,0,0.77,0.35,0.77,0.77c0,0.42-0.35,0.77-0.77,0.77c-0.42,0-0.77-0.35-0.77-0.77C100.39,62.66,100.74,62.31,101.16,62.31z
		 M85.9,80.64c-0.42,0-0.77-0.34-0.77-0.77c0-0.42,0.35-0.77,0.77-0.77c0.42,0,0.77,0.35,0.77,0.77
		C86.66,80.3,86.32,80.64,85.9,80.64z M63.28,116.75c-0.59,0-1.07-0.46-1.07-1.06c0-0.58,0.48-1.06,1.07-1.06
		c0.58,0,1.07,0.48,1.07,1.06C64.34,116.28,63.86,116.75,63.28,116.75z M103.11,101.46c-0.42,0-0.77-0.35-0.77-0.76
		c0-0.43,0.35-0.77,0.77-0.77s0.77,0.35,0.77,0.77C103.87,101.11,103.53,101.46,103.11,101.46z"/>
</g>
</svg>
